<svg width="1078" height="1081" viewBox="0 0 1078 1081" fill="none" xmlns="http://www.w3.org/2000/svg">
<path d="M988.583 89.4197C869.65 -29.5133 676.821 -29.5133 557.888 89.4197L399.293 248.015C371.837 275.471 350.719 306.865 335.94 340.379C390.879 315.086 451.799 307.022 510.551 316.187L647.603 179.135C716.988 109.75 829.483 109.75 898.868 179.135C968.253 248.52 968.253 361.015 898.868 430.399L740.273 588.995C670.888 658.379 558.393 658.379 489.008 588.995C448.659 548.645 431.774 493.717 438.353 441.166C401.54 446.371 366.047 463.131 337.732 491.445L314.434 514.744C324.658 574.79 352.944 632.361 399.293 678.71C518.226 797.643 711.055 797.643 829.988 678.71L988.583 520.114C1107.52 401.181 1107.52 208.353 988.583 89.4197Z" fill="#C8BDCD"/>
<path d="M988.583 89.4197C869.65 -29.5133 676.821 -29.5133 557.888 89.4197L399.293 248.015C371.837 275.471 350.719 306.865 335.94 340.379C390.879 315.086 451.799 307.022 510.551 316.187L647.603 179.135C716.988 109.75 829.483 109.75 898.868 179.135C968.253 248.52 968.253 361.015 898.868 430.399L740.273 588.995C670.888 658.379 558.393 658.379 489.008 588.995C448.659 548.645 431.774 493.717 438.353 441.166C401.54 446.371 366.047 463.131 337.732 491.445L314.434 514.744C324.658 574.79 352.944 632.361 399.293 678.71C518.226 797.643 711.055 797.643 829.988 678.71L988.583 520.114C1107.52 401.181 1107.52 208.353 988.583 89.4197Z" fill="url(#paint0_radial_48413_635)"/>
<path d="M988.583 89.4197C869.65 -29.5133 676.821 -29.5133 557.888 89.4197L399.293 248.015C371.837 275.471 350.719 306.865 335.94 340.379C390.879 315.086 451.799 307.022 510.551 316.187L647.603 179.135C716.988 109.75 829.483 109.75 898.868 179.135C968.253 248.52 968.253 361.015 898.868 430.399L740.273 588.995C670.888 658.379 558.393 658.379 489.008 588.995C448.659 548.645 431.774 493.717 438.353 441.166C401.54 446.371 366.047 463.131 337.732 491.445L314.434 514.744C324.658 574.79 352.944 632.361 399.293 678.71C518.226 797.643 711.055 797.643 829.988 678.71L988.583 520.114C1107.52 401.181 1107.52 208.353 988.583 89.4197Z" fill="url(#paint1_radial_48413_635)"/>
<path d="M988.583 89.4197C869.65 -29.5133 676.821 -29.5133 557.888 89.4197L399.293 248.015C371.837 275.471 350.719 306.865 335.94 340.379C390.879 315.086 451.799 307.022 510.551 316.187L647.603 179.135C716.988 109.75 829.483 109.75 898.868 179.135C968.253 248.52 968.253 361.015 898.868 430.399L740.273 588.995C670.888 658.379 558.393 658.379 489.008 588.995C448.659 548.645 431.774 493.717 438.353 441.166C401.54 446.371 366.047 463.131 337.732 491.445L314.434 514.744C324.658 574.79 352.944 632.361 399.293 678.71C518.226 797.643 711.055 797.643 829.988 678.71L988.583 520.114C1107.52 401.181 1107.52 208.353 988.583 89.4197Z" fill="url(#paint2_radial_48413_635)"/>
<path d="M988.583 89.4197C869.65 -29.5133 676.821 -29.5133 557.888 89.4197L399.293 248.015C371.837 275.471 350.719 306.865 335.94 340.379C390.879 315.086 451.799 307.022 510.551 316.187L647.603 179.135C716.988 109.75 829.483 109.75 898.868 179.135C968.253 248.52 968.253 361.015 898.868 430.399L740.273 588.995C670.888 658.379 558.393 658.379 489.008 588.995C448.659 548.645 431.774 493.717 438.353 441.166C401.54 446.371 366.047 463.131 337.732 491.445L314.434 514.744C324.658 574.79 352.944 632.361 399.293 678.71C518.226 797.643 711.055 797.643 829.988 678.71L988.583 520.114C1107.52 401.181 1107.52 208.353 988.583 89.4197Z" fill="url(#paint3_linear_48413_635)"/>
<path d="M988.583 89.4197C869.65 -29.5133 676.821 -29.5133 557.888 89.4197L399.293 248.015C371.837 275.471 350.719 306.865 335.94 340.379C390.879 315.086 451.799 307.022 510.551 316.187L647.603 179.135C716.988 109.75 829.483 109.75 898.868 179.135C968.253 248.52 968.253 361.015 898.868 430.399L740.273 588.995C670.888 658.379 558.393 658.379 489.008 588.995C448.659 548.645 431.774 493.717 438.353 441.166C401.54 446.371 366.047 463.131 337.732 491.445L314.434 514.744C324.658 574.79 352.944 632.361 399.293 678.71C518.226 797.643 711.055 797.643 829.988 678.71L988.583 520.114C1107.52 401.181 1107.52 208.353 988.583 89.4197Z" fill="url(#paint4_radial_48413_635)"/>
<path d="M988.583 89.4197C869.65 -29.5133 676.821 -29.5133 557.888 89.4197L399.293 248.015C371.837 275.471 350.719 306.865 335.94 340.379C390.879 315.086 451.799 307.022 510.551 316.187L647.603 179.135C716.988 109.75 829.483 109.75 898.868 179.135C968.253 248.52 968.253 361.015 898.868 430.399L740.273 588.995C670.888 658.379 558.393 658.379 489.008 588.995C448.659 548.645 431.774 493.717 438.353 441.166C401.54 446.371 366.047 463.131 337.732 491.445L314.434 514.744C324.658 574.79 352.944 632.361 399.293 678.71C518.226 797.643 711.055 797.643 829.988 678.71L988.583 520.114C1107.52 401.181 1107.52 208.353 988.583 89.4197Z" fill="url(#paint5_radial_48413_635)"/>
<path d="M988.583 89.4197C869.65 -29.5133 676.821 -29.5133 557.888 89.4197L399.293 248.015C371.837 275.471 350.719 306.865 335.94 340.379C390.879 315.086 451.799 307.022 510.551 316.187L647.603 179.135C716.988 109.75 829.483 109.75 898.868 179.135C968.253 248.52 968.253 361.015 898.868 430.399L740.273 588.995C670.888 658.379 558.393 658.379 489.008 588.995C448.659 548.645 431.774 493.717 438.353 441.166C401.54 446.371 366.047 463.131 337.732 491.445L314.434 514.744C324.658 574.79 352.944 632.361 399.293 678.71C518.226 797.643 711.055 797.643 829.988 678.71L988.583 520.114C1107.52 401.181 1107.52 208.353 988.583 89.4197Z" fill="url(#paint6_radial_48413_635)"/>
<path d="M988.583 89.4197C869.65 -29.5133 676.821 -29.5133 557.888 89.4197L399.293 248.015C371.837 275.471 350.719 306.865 335.94 340.379C390.879 315.086 451.799 307.022 510.551 316.187L647.603 179.135C716.988 109.75 829.483 109.75 898.868 179.135C968.253 248.52 968.253 361.015 898.868 430.399L740.273 588.995C670.888 658.379 558.393 658.379 489.008 588.995C448.659 548.645 431.774 493.717 438.353 441.166C401.54 446.371 366.047 463.131 337.732 491.445L314.434 514.744C324.658 574.79 352.944 632.361 399.293 678.71C518.226 797.643 711.055 797.643 829.988 678.71L988.583 520.114C1107.52 401.181 1107.52 208.353 988.583 89.4197Z" fill="url(#paint7_radial_48413_635)"/>
<path d="M988.583 89.4197C869.65 -29.5133 676.821 -29.5133 557.888 89.4197L399.293 248.015C371.837 275.471 350.719 306.865 335.94 340.379C390.879 315.086 451.799 307.022 510.551 316.187L647.603 179.135C716.988 109.75 829.483 109.75 898.868 179.135C968.253 248.52 968.253 361.015 898.868 430.399L740.273 588.995C670.888 658.379 558.393 658.379 489.008 588.995C448.659 548.645 431.774 493.717 438.353 441.166C401.54 446.371 366.047 463.131 337.732 491.445L314.434 514.744C324.658 574.79 352.944 632.361 399.293 678.71C518.226 797.643 711.055 797.643 829.988 678.71L988.583 520.114C1107.52 401.181 1107.52 208.353 988.583 89.4197Z" fill="url(#paint8_linear_48413_635)"/>
<path d="M988.583 89.4197C869.65 -29.5133 676.821 -29.5133 557.888 89.4197L399.293 248.015C371.837 275.471 350.719 306.865 335.94 340.379C390.879 315.086 451.799 307.022 510.551 316.187L647.603 179.135C716.988 109.75 829.483 109.75 898.868 179.135C968.253 248.52 968.253 361.015 898.868 430.399L740.273 588.995C670.888 658.379 558.393 658.379 489.008 588.995C448.659 548.645 431.774 493.717 438.353 441.166C401.54 446.371 366.047 463.131 337.732 491.445L314.434 514.744C324.658 574.79 352.944 632.361 399.293 678.71C518.226 797.643 711.055 797.643 829.988 678.71L988.583 520.114C1107.52 401.181 1107.52 208.353 988.583 89.4197Z" fill="url(#paint9_radial_48413_635)"/>
<path d="M988.583 89.4197C869.65 -29.5133 676.821 -29.5133 557.888 89.4197L399.293 248.015C371.837 275.471 350.719 306.865 335.94 340.379C390.879 315.086 451.799 307.022 510.551 316.187L647.603 179.135C716.988 109.75 829.483 109.75 898.868 179.135C968.253 248.52 968.253 361.015 898.868 430.399L740.273 588.995C670.888 658.379 558.393 658.379 489.008 588.995C448.659 548.645 431.774 493.717 438.353 441.166C401.54 446.371 366.047 463.131 337.732 491.445L314.434 514.744C324.658 574.79 352.944 632.361 399.293 678.71C518.226 797.643 711.055 797.643 829.988 678.71L988.583 520.114C1107.52 401.181 1107.52 208.353 988.583 89.4197Z" fill="url(#paint10_radial_48413_635)"/>
<path d="M988.583 89.4197C869.65 -29.5133 676.821 -29.5133 557.888 89.4197L399.293 248.015C371.837 275.471 350.719 306.865 335.94 340.379C390.879 315.086 451.799 307.022 510.551 316.187L647.603 179.135C716.988 109.75 829.483 109.75 898.868 179.135C968.253 248.52 968.253 361.015 898.868 430.399L740.273 588.995C670.888 658.379 558.393 658.379 489.008 588.995C448.659 548.645 431.774 493.717 438.353 441.166C401.54 446.371 366.047 463.131 337.732 491.445L314.434 514.744C324.658 574.79 352.944 632.361 399.293 678.71C518.226 797.643 711.055 797.643 829.988 678.71L988.583 520.114C1107.52 401.181 1107.52 208.353 988.583 89.4197Z" fill="url(#paint11_radial_48413_635)"/>
<path d="M988.583 89.4197C869.65 -29.5133 676.821 -29.5133 557.888 89.4197L399.293 248.015C371.837 275.471 350.719 306.865 335.94 340.379C390.879 315.086 451.799 307.022 510.551 316.187L647.603 179.135C716.988 109.75 829.483 109.75 898.868 179.135C968.253 248.52 968.253 361.015 898.868 430.399L740.273 588.995C670.888 658.379 558.393 658.379 489.008 588.995C448.659 548.645 431.774 493.717 438.353 441.166C401.54 446.371 366.047 463.131 337.732 491.445L314.434 514.744C324.658 574.79 352.944 632.361 399.293 678.71C518.226 797.643 711.055 797.643 829.988 678.71L988.583 520.114C1107.52 401.181 1107.52 208.353 988.583 89.4197Z" fill="url(#paint12_radial_48413_635)"/>
<path d="M510.546 316.187C572.103 325.789 631.28 354.303 678.707 401.73C725.055 448.079 753.342 505.65 763.566 565.696L740.268 588.995C711.953 617.309 676.46 634.069 639.647 639.274C646.226 586.723 629.341 531.795 588.992 491.445C547.921 450.375 491.746 433.615 438.348 441.166C406.136 445.72 374.935 459.121 348.67 481.369C344.918 484.547 341.266 487.906 337.727 491.445L179.132 650.041C109.747 719.425 109.747 831.92 179.132 901.305C248.517 970.69 361.012 970.69 430.397 901.305L567.449 764.253C626.201 773.418 687.121 765.354 742.06 740.061C727.28 773.575 706.163 804.969 678.707 832.425L520.112 991.02C401.179 1109.95 208.35 1109.95 89.4171 991.02C-29.5159 872.087 -29.516 679.259 89.417 560.326L248.012 401.73C274.252 375.491 304.089 355.04 335.935 340.379C390.874 315.086 451.794 307.022 510.546 316.187Z" fill="#C8BDCD"/>
<path d="M510.546 316.187C572.103 325.789 631.28 354.303 678.707 401.73C725.055 448.079 753.342 505.65 763.566 565.696L740.268 588.995C711.953 617.309 676.46 634.069 639.647 639.274C646.226 586.723 629.341 531.795 588.992 491.445C547.921 450.375 491.746 433.615 438.348 441.166C406.136 445.72 374.935 459.121 348.67 481.369C344.918 484.547 341.266 487.906 337.727 491.445L179.132 650.041C109.747 719.425 109.747 831.92 179.132 901.305C248.517 970.69 361.012 970.69 430.397 901.305L567.449 764.253C626.201 773.418 687.121 765.354 742.06 740.061C727.28 773.575 706.163 804.969 678.707 832.425L520.112 991.02C401.179 1109.95 208.35 1109.95 89.4171 991.02C-29.5159 872.087 -29.516 679.259 89.417 560.326L248.012 401.73C274.252 375.491 304.089 355.04 335.935 340.379C390.874 315.086 451.794 307.022 510.546 316.187Z" fill="url(#paint13_radial_48413_635)"/>
<path d="M510.546 316.187C572.103 325.789 631.28 354.303 678.707 401.73C725.055 448.079 753.342 505.65 763.566 565.696L740.268 588.995C711.953 617.309 676.46 634.069 639.647 639.274C646.226 586.723 629.341 531.795 588.992 491.445C547.921 450.375 491.746 433.615 438.348 441.166C406.136 445.72 374.935 459.121 348.67 481.369C344.918 484.547 341.266 487.906 337.727 491.445L179.132 650.041C109.747 719.425 109.747 831.92 179.132 901.305C248.517 970.69 361.012 970.69 430.397 901.305L567.449 764.253C626.201 773.418 687.121 765.354 742.06 740.061C727.28 773.575 706.163 804.969 678.707 832.425L520.112 991.02C401.179 1109.95 208.35 1109.95 89.4171 991.02C-29.5159 872.087 -29.516 679.259 89.417 560.326L248.012 401.73C274.252 375.491 304.089 355.04 335.935 340.379C390.874 315.086 451.794 307.022 510.546 316.187Z" fill="url(#paint14_radial_48413_635)"/>
<path d="M510.546 316.187C572.103 325.789 631.28 354.303 678.707 401.73C725.055 448.079 753.342 505.65 763.566 565.696L740.268 588.995C711.953 617.309 676.46 634.069 639.647 639.274C646.226 586.723 629.341 531.795 588.992 491.445C547.921 450.375 491.746 433.615 438.348 441.166C406.136 445.72 374.935 459.121 348.67 481.369C344.918 484.547 341.266 487.906 337.727 491.445L179.132 650.041C109.747 719.425 109.747 831.92 179.132 901.305C248.517 970.69 361.012 970.69 430.397 901.305L567.449 764.253C626.201 773.418 687.121 765.354 742.06 740.061C727.28 773.575 706.163 804.969 678.707 832.425L520.112 991.02C401.179 1109.95 208.35 1109.95 89.4171 991.02C-29.5159 872.087 -29.516 679.259 89.417 560.326L248.012 401.73C274.252 375.491 304.089 355.04 335.935 340.379C390.874 315.086 451.794 307.022 510.546 316.187Z" fill="url(#paint15_radial_48413_635)"/>
<path d="M510.546 316.187C572.103 325.789 631.28 354.303 678.707 401.73C725.055 448.079 753.342 505.65 763.566 565.696L740.268 588.995C711.953 617.309 676.46 634.069 639.647 639.274C646.226 586.723 629.341 531.795 588.992 491.445C547.921 450.375 491.746 433.615 438.348 441.166C406.136 445.72 374.935 459.121 348.67 481.369C344.918 484.547 341.266 487.906 337.727 491.445L179.132 650.041C109.747 719.425 109.747 831.92 179.132 901.305C248.517 970.69 361.012 970.69 430.397 901.305L567.449 764.253C626.201 773.418 687.121 765.354 742.06 740.061C727.28 773.575 706.163 804.969 678.707 832.425L520.112 991.02C401.179 1109.95 208.35 1109.95 89.4171 991.02C-29.5159 872.087 -29.516 679.259 89.417 560.326L248.012 401.73C274.252 375.491 304.089 355.04 335.935 340.379C390.874 315.086 451.794 307.022 510.546 316.187Z" fill="url(#paint16_linear_48413_635)"/>
<path d="M510.546 316.187C572.103 325.789 631.28 354.303 678.707 401.73C725.055 448.079 753.342 505.65 763.566 565.696L740.268 588.995C711.953 617.309 676.46 634.069 639.647 639.274C646.226 586.723 629.341 531.795 588.992 491.445C547.921 450.375 491.746 433.615 438.348 441.166C406.136 445.72 374.935 459.121 348.67 481.369C344.918 484.547 341.266 487.906 337.727 491.445L179.132 650.041C109.747 719.425 109.747 831.92 179.132 901.305C248.517 970.69 361.012 970.69 430.397 901.305L567.449 764.253C626.201 773.418 687.121 765.354 742.06 740.061C727.28 773.575 706.163 804.969 678.707 832.425L520.112 991.02C401.179 1109.95 208.35 1109.95 89.4171 991.02C-29.5159 872.087 -29.516 679.259 89.417 560.326L248.012 401.73C274.252 375.491 304.089 355.04 335.935 340.379C390.874 315.086 451.794 307.022 510.546 316.187Z" fill="url(#paint17_radial_48413_635)"/>
<path d="M510.546 316.187C572.103 325.789 631.28 354.303 678.707 401.73C725.055 448.079 753.342 505.65 763.566 565.696L740.268 588.995C711.953 617.309 676.46 634.069 639.647 639.274C646.226 586.723 629.341 531.795 588.992 491.445C547.921 450.375 491.746 433.615 438.348 441.166C406.136 445.72 374.935 459.121 348.67 481.369C344.918 484.547 341.266 487.906 337.727 491.445L179.132 650.041C109.747 719.425 109.747 831.92 179.132 901.305C248.517 970.69 361.012 970.69 430.397 901.305L567.449 764.253C626.201 773.418 687.121 765.354 742.06 740.061C727.28 773.575 706.163 804.969 678.707 832.425L520.112 991.02C401.179 1109.95 208.35 1109.95 89.4171 991.02C-29.5159 872.087 -29.516 679.259 89.417 560.326L248.012 401.73C274.252 375.491 304.089 355.04 335.935 340.379C390.874 315.086 451.794 307.022 510.546 316.187Z" fill="url(#paint18_radial_48413_635)"/>
<path d="M510.546 316.187C572.103 325.789 631.28 354.303 678.707 401.73C725.055 448.079 753.342 505.65 763.566 565.696L740.268 588.995C711.953 617.309 676.46 634.069 639.647 639.274C646.226 586.723 629.341 531.795 588.992 491.445C547.921 450.375 491.746 433.615 438.348 441.166C406.136 445.72 374.935 459.121 348.67 481.369C344.918 484.547 341.266 487.906 337.727 491.445L179.132 650.041C109.747 719.425 109.747 831.92 179.132 901.305C248.517 970.69 361.012 970.69 430.397 901.305L567.449 764.253C626.201 773.418 687.121 765.354 742.06 740.061C727.28 773.575 706.163 804.969 678.707 832.425L520.112 991.02C401.179 1109.95 208.35 1109.95 89.4171 991.02C-29.5159 872.087 -29.516 679.259 89.417 560.326L248.012 401.73C274.252 375.491 304.089 355.04 335.935 340.379C390.874 315.086 451.794 307.022 510.546 316.187Z" fill="url(#paint19_radial_48413_635)"/>
<path d="M510.546 316.187C572.103 325.789 631.28 354.303 678.707 401.73C725.055 448.079 753.342 505.65 763.566 565.696L740.268 588.995C711.953 617.309 676.46 634.069 639.647 639.274C646.226 586.723 629.341 531.795 588.992 491.445C547.921 450.375 491.746 433.615 438.348 441.166C406.136 445.72 374.935 459.121 348.67 481.369C344.918 484.547 341.266 487.906 337.727 491.445L179.132 650.041C109.747 719.425 109.747 831.92 179.132 901.305C248.517 970.69 361.012 970.69 430.397 901.305L567.449 764.253C626.201 773.418 687.121 765.354 742.06 740.061C727.28 773.575 706.163 804.969 678.707 832.425L520.112 991.02C401.179 1109.95 208.35 1109.95 89.4171 991.02C-29.5159 872.087 -29.516 679.259 89.417 560.326L248.012 401.73C274.252 375.491 304.089 355.04 335.935 340.379C390.874 315.086 451.794 307.022 510.546 316.187Z" fill="url(#paint20_linear_48413_635)"/>
<path d="M510.546 316.187C572.103 325.789 631.28 354.303 678.707 401.73C725.055 448.079 753.342 505.65 763.566 565.696L740.268 588.995C711.953 617.309 676.46 634.069 639.647 639.274C646.226 586.723 629.341 531.795 588.992 491.445C547.921 450.375 491.746 433.615 438.348 441.166C406.136 445.72 374.935 459.121 348.67 481.369C344.918 484.547 341.266 487.906 337.727 491.445L179.132 650.041C109.747 719.425 109.747 831.92 179.132 901.305C248.517 970.69 361.012 970.69 430.397 901.305L567.449 764.253C626.201 773.418 687.121 765.354 742.06 740.061C727.28 773.575 706.163 804.969 678.707 832.425L520.112 991.02C401.179 1109.95 208.35 1109.95 89.4171 991.02C-29.5159 872.087 -29.516 679.259 89.417 560.326L248.012 401.73C274.252 375.491 304.089 355.04 335.935 340.379C390.874 315.086 451.794 307.022 510.546 316.187Z" fill="url(#paint21_radial_48413_635)"/>
<path d="M510.546 316.187C572.103 325.789 631.28 354.303 678.707 401.73C725.055 448.079 753.342 505.65 763.566 565.696L740.268 588.995C711.953 617.309 676.46 634.069 639.647 639.274C646.226 586.723 629.341 531.795 588.992 491.445C547.921 450.375 491.746 433.615 438.348 441.166C406.136 445.72 374.935 459.121 348.67 481.369C344.918 484.547 341.266 487.906 337.727 491.445L179.132 650.041C109.747 719.425 109.747 831.92 179.132 901.305C248.517 970.69 361.012 970.69 430.397 901.305L567.449 764.253C626.201 773.418 687.121 765.354 742.06 740.061C727.28 773.575 706.163 804.969 678.707 832.425L520.112 991.02C401.179 1109.95 208.35 1109.95 89.4171 991.02C-29.5159 872.087 -29.516 679.259 89.417 560.326L248.012 401.73C274.252 375.491 304.089 355.04 335.935 340.379C390.874 315.086 451.794 307.022 510.546 316.187Z" fill="url(#paint22_radial_48413_635)"/>
<path d="M510.546 316.187C572.103 325.789 631.28 354.303 678.707 401.73C725.055 448.079 753.342 505.65 763.566 565.696L740.268 588.995C711.953 617.309 676.46 634.069 639.647 639.274C646.226 586.723 629.341 531.795 588.992 491.445C547.921 450.375 491.746 433.615 438.348 441.166C406.136 445.72 374.935 459.121 348.67 481.369C344.918 484.547 341.266 487.906 337.727 491.445L179.132 650.041C109.747 719.425 109.747 831.92 179.132 901.305C248.517 970.69 361.012 970.69 430.397 901.305L567.449 764.253C626.201 773.418 687.121 765.354 742.06 740.061C727.28 773.575 706.163 804.969 678.707 832.425L520.112 991.02C401.179 1109.95 208.35 1109.95 89.4171 991.02C-29.5159 872.087 -29.516 679.259 89.417 560.326L248.012 401.73C274.252 375.491 304.089 355.04 335.935 340.379C390.874 315.086 451.794 307.022 510.546 316.187Z" fill="url(#paint23_radial_48413_635)"/>
<path d="M510.546 316.187C572.103 325.789 631.28 354.303 678.707 401.73C725.055 448.079 753.342 505.65 763.566 565.696L740.268 588.995C711.953 617.309 676.46 634.069 639.647 639.274C646.226 586.723 629.341 531.795 588.992 491.445C547.921 450.375 491.746 433.615 438.348 441.166C406.136 445.72 374.935 459.121 348.67 481.369C344.918 484.547 341.266 487.906 337.727 491.445L179.132 650.041C109.747 719.425 109.747 831.92 179.132 901.305C248.517 970.69 361.012 970.69 430.397 901.305L567.449 764.253C626.201 773.418 687.121 765.354 742.06 740.061C727.28 773.575 706.163 804.969 678.707 832.425L520.112 991.02C401.179 1109.95 208.35 1109.95 89.4171 991.02C-29.5159 872.087 -29.516 679.259 89.417 560.326L248.012 401.73C274.252 375.491 304.089 355.04 335.935 340.379C390.874 315.086 451.794 307.022 510.546 316.187Z" fill="url(#paint24_radial_48413_635)"/>
<path d="M510.546 316.187C572.103 325.789 631.28 354.303 678.707 401.73C725.055 448.079 753.342 505.65 763.566 565.696L740.268 588.995C711.953 617.309 676.46 634.069 639.647 639.274C646.226 586.723 629.341 531.795 588.992 491.445C547.921 450.375 491.746 433.615 438.348 441.166C406.136 445.72 374.935 459.121 348.67 481.369C344.918 484.547 341.266 487.906 337.727 491.445L179.132 650.041C109.747 719.425 109.747 831.92 179.132 901.305C248.517 970.69 361.012 970.69 430.397 901.305L567.449 764.253C626.201 773.418 687.121 765.354 742.06 740.061C727.28 773.575 706.163 804.969 678.707 832.425L520.112 991.02C401.179 1109.95 208.35 1109.95 89.4171 991.02C-29.5159 872.087 -29.516 679.259 89.417 560.326L248.012 401.73C274.252 375.491 304.089 355.04 335.935 340.379C390.874 315.086 451.794 307.022 510.546 316.187Z" fill="url(#paint25_radial_48413_635)"/>
<path d="M510.546 316.187C572.103 325.789 631.28 354.303 678.707 401.73C725.055 448.079 753.342 505.65 763.566 565.696L740.268 588.995C711.953 617.309 676.46 634.069 639.647 639.274C646.226 586.723 629.341 531.795 588.992 491.445C547.921 450.375 491.746 433.615 438.348 441.166C406.136 445.72 374.935 459.121 348.67 481.369C344.918 484.547 341.266 487.906 337.727 491.445L179.132 650.041C109.747 719.425 109.747 831.92 179.132 901.305C248.517 970.69 361.012 970.69 430.397 901.305L567.449 764.253C626.201 773.418 687.121 765.354 742.06 740.061C727.28 773.575 706.163 804.969 678.707 832.425L520.112 991.02C401.179 1109.95 208.35 1109.95 89.4171 991.02C-29.5159 872.087 -29.516 679.259 89.417 560.326L248.012 401.73C274.252 375.491 304.089 355.04 335.935 340.379C390.874 315.086 451.794 307.022 510.546 316.187Z" fill="url(#paint26_linear_48413_635)"/>
<path d="M510.546 316.187C572.103 325.789 631.28 354.303 678.707 401.73C725.055 448.079 753.342 505.65 763.566 565.696L740.268 588.995C711.953 617.309 676.46 634.069 639.647 639.274C646.226 586.723 629.341 531.795 588.992 491.445C547.921 450.375 491.746 433.615 438.348 441.166C406.136 445.72 374.935 459.121 348.67 481.369C344.918 484.547 341.266 487.906 337.727 491.445L179.132 650.041C109.747 719.425 109.747 831.92 179.132 901.305C248.517 970.69 361.012 970.69 430.397 901.305L567.449 764.253C626.201 773.418 687.121 765.354 742.06 740.061C727.28 773.575 706.163 804.969 678.707 832.425L520.112 991.02C401.179 1109.95 208.35 1109.95 89.4171 991.02C-29.5159 872.087 -29.516 679.259 89.417 560.326L248.012 401.73C274.252 375.491 304.089 355.04 335.935 340.379C390.874 315.086 451.794 307.022 510.546 316.187Z" fill="url(#paint27_radial_48413_635)"/>
<defs>
<radialGradient id="paint0_radial_48413_635" cx="0" cy="0" r="1" gradientUnits="userSpaceOnUse" gradientTransform="translate(363.32 464.15) rotate(71.2883) scale(103.85 541.672)">
<stop offset="0.031773" stop-color="#9789A3"/>
<stop offset="0.701877" stop-color="#9789A3" stop-opacity="0.134336"/>
<stop offset="1" stop-color="#9789A3" stop-opacity="0"/>
</radialGradient>
<radialGradient id="paint1_radial_48413_635" cx="0" cy="0" r="1" gradientUnits="userSpaceOnUse" gradientTransform="translate(704.385 382.015) rotate(-45) scale(421.044 341.647)">
<stop offset="0.705696" stop-color="#F1E9F5" stop-opacity="0"/>
<stop offset="0.753414" stop-color="#F1E9F5" stop-opacity="0.103399"/>
<stop offset="0.775215" stop-color="#F1E9F5" stop-opacity="0.208163"/>
<stop offset="0.808603" stop-color="#F1E9F5" stop-opacity="0.473689"/>
<stop offset="0.838717" stop-color="#F1E9F5" stop-opacity="0.7"/>
<stop offset="0.866334" stop-color="#F1E9F5" stop-opacity="0.79"/>
<stop offset="0.886688" stop-color="#F1E9F5" stop-opacity="0.73"/>
<stop offset="0.968325" stop-color="#F1E9F5" stop-opacity="0"/>
</radialGradient>
<radialGradient id="paint2_radial_48413_635" cx="0" cy="0" r="1" gradientUnits="userSpaceOnUse" gradientTransform="translate(460.095 337.232) rotate(-71.2883) scale(103.85 294.004)">
<stop stop-color="#CDC4D3"/>
<stop offset="1" stop-color="#CDC4D3" stop-opacity="0"/>
</radialGradient>
<linearGradient id="paint3_linear_48413_635" x1="369.666" y1="243.63" x2="428.365" y2="303.916" gradientUnits="userSpaceOnUse">
<stop offset="0.298766" stop-color="#DED6E0"/>
<stop offset="1" stop-color="#DED6E0" stop-opacity="0"/>
</linearGradient>
<radialGradient id="paint4_radial_48413_635" cx="0" cy="0" r="1" gradientUnits="userSpaceOnUse" gradientTransform="translate(804.359 223.006) rotate(-77.9885) scale(152.467 196.906)">
<stop stop-color="#9378A9"/>
<stop offset="1" stop-color="#AB9FB5" stop-opacity="0"/>
</radialGradient>
<radialGradient id="paint5_radial_48413_635" cx="0" cy="0" r="1" gradientUnits="userSpaceOnUse" gradientTransform="translate(351.188 472.915) rotate(60.4463) scale(120.774 629.945)">
<stop offset="0.031773" stop-color="#9789A3" stop-opacity="0.68"/>
<stop offset="0.622648" stop-color="#9789A3" stop-opacity="0.134336"/>
<stop offset="1" stop-color="#9789A3" stop-opacity="0"/>
</radialGradient>
<radialGradient id="paint6_radial_48413_635" cx="0" cy="0" r="1" gradientUnits="userSpaceOnUse" gradientTransform="translate(660.236 417.585) rotate(145.736) scale(374.928 1865.82)">
<stop stop-color="#C8BDCD"/>
<stop offset="0.422963" stop-color="#C8BDCD" stop-opacity="0.59"/>
<stop offset="0.831819" stop-color="#C8BDCD" stop-opacity="0.304504"/>
<stop offset="1" stop-color="#C8BDCD" stop-opacity="0"/>
</radialGradient>
<radialGradient id="paint7_radial_48413_635" cx="0" cy="0" r="1" gradientUnits="userSpaceOnUse" gradientTransform="translate(772.927 298.794) rotate(135.872) scale(218.812 202.401)">
<stop offset="0.821218" stop-color="#A696B3"/>
<stop offset="0.922202" stop-color="#A696B3" stop-opacity="0.358331"/>
<stop offset="0.968332" stop-color="#A696B3" stop-opacity="0.08"/>
<stop offset="1" stop-color="#A696B3" stop-opacity="0"/>
</radialGradient>
<linearGradient id="paint8_linear_48413_635" x1="1174.79" y1="874.062" x2="876.472" y2="578.217" gradientUnits="userSpaceOnUse">
<stop offset="0.894847" stop-color="#A696B3"/>
<stop offset="0.939358" stop-color="#A696B3" stop-opacity="0.358331"/>
<stop offset="0.970672" stop-color="#A696B3" stop-opacity="0.103718"/>
<stop offset="1" stop-color="#A696B3" stop-opacity="0"/>
</linearGradient>
<radialGradient id="paint9_radial_48413_635" cx="0" cy="0" r="1" gradientUnits="userSpaceOnUse" gradientTransform="translate(597.212 341.491) rotate(-144.13) scale(133.021 276.336)">
<stop offset="0.628292" stop-color="#A696B3"/>
<stop offset="0.835133" stop-color="#A696B3" stop-opacity="0.358331"/>
<stop offset="0.944803" stop-color="#A696B3" stop-opacity="0.0722202"/>
<stop offset="1" stop-color="#A696B3" stop-opacity="0"/>
</radialGradient>
<radialGradient id="paint10_radial_48413_635" cx="0" cy="0" r="1" gradientUnits="userSpaceOnUse" gradientTransform="translate(740.996 432.897) rotate(46.6748) scale(168.457 323.572)">
<stop offset="0.624351" stop-color="#A696B3"/>
<stop offset="0.801675" stop-color="#A696B3" stop-opacity="0.358331"/>
<stop offset="0.929849" stop-color="#A696B3" stop-opacity="0.0722202"/>
<stop offset="1" stop-color="#A696B3" stop-opacity="0"/>
</radialGradient>
<radialGradient id="paint11_radial_48413_635" cx="0" cy="0" r="1" gradientUnits="userSpaceOnUse" gradientTransform="translate(645.712 273.773) rotate(89.324) scale(537.852 547.314)">
<stop offset="0.646853" stop-color="#8C72A5" stop-opacity="0"/>
<stop offset="0.766634" stop-color="#8C72A5" stop-opacity="0.106245"/>
<stop offset="0.803086" stop-color="#8C72A5" stop-opacity="0.125898"/>
<stop offset="0.840368" stop-color="#8C72A5" stop-opacity="0.2"/>
<stop offset="0.88" stop-color="#8C72A5" stop-opacity="0.366104"/>
<stop offset="0.969314" stop-color="#8C72A5"/>
</radialGradient>
<radialGradient id="paint12_radial_48413_635" cx="0" cy="0" r="1" gradientUnits="userSpaceOnUse" gradientTransform="translate(773.803 367.792) rotate(156.532) scale(553.236 562.969)">
<stop offset="0.800508" stop-color="#8C72A5" stop-opacity="0"/>
<stop offset="0.852524" stop-color="#8C72A5" stop-opacity="0.13"/>
<stop offset="0.915146" stop-color="#8C72A5" stop-opacity="0.64"/>
</radialGradient>
<radialGradient id="paint13_radial_48413_635" cx="0" cy="0" r="1" gradientUnits="userSpaceOnUse" gradientTransform="translate(331.495 586.084) rotate(89.324) scale(537.852 547.314)">
<stop offset="0.773589" stop-color="#A08FAF" stop-opacity="0"/>
<stop offset="0.969314" stop-color="#8C72A5"/>
</radialGradient>
<radialGradient id="paint14_radial_48413_635" cx="0" cy="0" r="1" gradientUnits="userSpaceOnUse" gradientTransform="translate(502.554 691.766) rotate(161.478) scale(566.475 576.44)">
<stop offset="0.773589" stop-color="#A08FAF" stop-opacity="0"/>
<stop offset="0.969314" stop-color="#8C72A5"/>
</radialGradient>
<radialGradient id="paint15_radial_48413_635" cx="0" cy="0" r="1" gradientUnits="userSpaceOnUse" gradientTransform="translate(145.878 649.542) rotate(-71.2883) scale(103.85 294.004)">
<stop stop-color="#CDC4D3"/>
<stop offset="1" stop-color="#CDC4D3" stop-opacity="0"/>
</radialGradient>
<linearGradient id="paint16_linear_48413_635" x1="55.449" y1="555.941" x2="114.149" y2="616.226" gradientUnits="userSpaceOnUse">
<stop stop-color="#DED6E0"/>
<stop offset="1" stop-color="#DED6E0" stop-opacity="0"/>
</linearGradient>
<radialGradient id="paint17_radial_48413_635" cx="0" cy="0" r="1" gradientUnits="userSpaceOnUse" gradientTransform="translate(490.143 535.316) rotate(-77.9885) scale(152.467 196.906)">
<stop offset="0.373303" stop-color="#9378A9"/>
<stop offset="1" stop-color="#AB9FB5" stop-opacity="0"/>
</radialGradient>
<radialGradient id="paint18_radial_48413_635" cx="0" cy="0" r="1" gradientUnits="userSpaceOnUse" gradientTransform="translate(731.377 659.286) rotate(140.842) scale(242.448 141.158)">
<stop offset="0.248848" stop-color="#92889C"/>
<stop offset="1" stop-color="#92889C" stop-opacity="0"/>
</radialGradient>
<radialGradient id="paint19_radial_48413_635" cx="0" cy="0" r="1" gradientUnits="userSpaceOnUse" gradientTransform="translate(393.809 678.925) rotate(-44.6194) scale(405.54 329.067)">
<stop offset="0.705696" stop-color="#F1E9F5" stop-opacity="0"/>
<stop offset="0.753414" stop-color="#F1E9F5" stop-opacity="0.103399"/>
<stop offset="0.775215" stop-color="#F1E9F5" stop-opacity="0.208163"/>
<stop offset="0.808603" stop-color="#F1E9F5" stop-opacity="0.473689"/>
<stop offset="0.838717" stop-color="#F1E9F5" stop-opacity="0.7"/>
<stop offset="0.866334" stop-color="#F1E9F5" stop-opacity="0.79"/>
<stop offset="0.886688" stop-color="#F1E9F5" stop-opacity="0.73"/>
<stop offset="0.915279" stop-color="#F1E9F5" stop-opacity="0.502292"/>
<stop offset="0.935075" stop-color="#F1E9F5" stop-opacity="0.316751"/>
<stop offset="0.964996" stop-color="#F1E9F5" stop-opacity="0.101475"/>
<stop offset="1" stop-color="#F1E9F5" stop-opacity="0"/>
</radialGradient>
<linearGradient id="paint20_linear_48413_635" x1="860.569" y1="1186.37" x2="562.256" y2="890.527" gradientUnits="userSpaceOnUse">
<stop offset="0.894847" stop-color="#A696B3"/>
<stop offset="0.939358" stop-color="#A696B3" stop-opacity="0.358331"/>
<stop offset="0.970672" stop-color="#A696B3" stop-opacity="0.103718"/>
<stop offset="1" stop-color="#A696B3" stop-opacity="0"/>
</linearGradient>
<radialGradient id="paint21_radial_48413_635" cx="0" cy="0" r="1" gradientUnits="userSpaceOnUse" gradientTransform="translate(378.58 690.955) rotate(128.991) scale(353.08 1757.09)">
<stop offset="0.158238" stop-color="#C8BDCD"/>
<stop offset="0.315686" stop-color="#C8BDCD" stop-opacity="0.8"/>
<stop offset="0.807371" stop-color="#C8BDCD" stop-opacity="0.304504"/>
<stop offset="1" stop-color="#C8BDCD" stop-opacity="0"/>
</radialGradient>
<radialGradient id="paint22_radial_48413_635" cx="0" cy="0" r="1" gradientUnits="userSpaceOnUse" gradientTransform="translate(420.175 639.299) rotate(-136.736) scale(212.831 276.598)">
<stop offset="0.664179" stop-color="#A696B3" stop-opacity="0.7"/>
<stop offset="0.84539" stop-color="#A696B3" stop-opacity="0.358331"/>
<stop offset="0.951678" stop-color="#A696B3" stop-opacity="0.0722202"/>
<stop offset="1" stop-color="#A696B3" stop-opacity="0"/>
</radialGradient>
<radialGradient id="paint23_radial_48413_635" cx="0" cy="0" r="1" gradientUnits="userSpaceOnUse" gradientTransform="translate(253.524 668.21) rotate(-144.944) scale(113.823 233.408)">
<stop offset="0.344425" stop-color="#A696B3" stop-opacity="0.7"/>
<stop offset="0.592026" stop-color="#A696B3" stop-opacity="0.358331"/>
<stop offset="0.882192" stop-color="#A696B3" stop-opacity="0.0722202"/>
<stop offset="1" stop-color="#A696B3" stop-opacity="0"/>
</radialGradient>
<radialGradient id="paint24_radial_48413_635" cx="0" cy="0" r="1" gradientUnits="userSpaceOnUse" gradientTransform="translate(426.78 745.208) rotate(46.6748) scale(168.457 323.572)">
<stop offset="0.624351" stop-color="#A696B3"/>
<stop offset="0.801675" stop-color="#A696B3" stop-opacity="0.358331"/>
<stop offset="0.929849" stop-color="#A696B3" stop-opacity="0.0722202"/>
<stop offset="1" stop-color="#A696B3" stop-opacity="0"/>
</radialGradient>
<radialGradient id="paint25_radial_48413_635" cx="0" cy="0" r="1" gradientUnits="userSpaceOnUse" gradientTransform="translate(672.578 664.914) rotate(-88.7951) scale(164.234 315.46)">
<stop stop-color="#A696B3"/>
<stop offset="0.6946" stop-color="#A696B3" stop-opacity="0.358331"/>
<stop offset="0.929849" stop-color="#A696B3" stop-opacity="0.0722202"/>
<stop offset="1" stop-color="#A696B3" stop-opacity="0"/>
</radialGradient>
<linearGradient id="paint26_linear_48413_635" x1="860.569" y1="1186.37" x2="562.256" y2="890.527" gradientUnits="userSpaceOnUse">
<stop offset="0.894847" stop-color="#A696B3"/>
<stop offset="0.939358" stop-color="#A696B3" stop-opacity="0.358331"/>
<stop offset="0.970672" stop-color="#A696B3" stop-opacity="0.103718"/>
<stop offset="1" stop-color="#A696B3" stop-opacity="0"/>
</linearGradient>
<radialGradient id="paint27_radial_48413_635" cx="0" cy="0" r="1" gradientUnits="userSpaceOnUse" gradientTransform="translate(470.349 621.028) rotate(139.827) scale(220.783 204.224)">
<stop offset="0.842131" stop-color="#A696B3"/>
<stop offset="0.922202" stop-color="#A696B3" stop-opacity="0.358331"/>
<stop offset="0.968332" stop-color="#A696B3" stop-opacity="0.08"/>
<stop offset="1" stop-color="#A696B3" stop-opacity="0"/>
</radialGradient>
</defs>
</svg>
