<svg width="922" height="159" viewBox="0 0 922 159" fill="none" xmlns="http://www.w3.org/2000/svg">
<path d="M187.875 115.25L199.5 96.375C202.542 98.75 205.375 100.688 208 102.188C210.667 103.688 213.25 104.792 215.75 105.5C218.292 106.167 220.875 106.5 223.5 106.5C226.083 106.5 228.292 106.208 230.125 105.625C231.958 105 233.354 104.125 234.312 103C235.312 101.833 235.812 100.458 235.812 98.875C235.812 96.875 235.104 95.1667 233.688 93.75C232.271 92.3333 230.375 91.0625 228 89.9375C225.667 88.8125 223.104 87.6875 220.312 86.5625C217.312 85.3542 214.25 84.0208 211.125 82.5625C208 81.0625 205.125 79.25 202.5 77.125C199.875 75 197.75 72.4167 196.125 69.375C194.5 66.2917 193.688 62.5417 193.688 58.125C193.688 52.2917 195.146 47.3125 198.062 43.1875C201.021 39.0208 205.042 35.8542 210.125 33.6875C215.25 31.4792 221.042 30.375 227.5 30.375C232.208 30.375 237.188 31 242.438 32.25C247.688 33.5 253 35.4583 258.375 38.125L248.75 58C245.75 56.1667 242.458 54.7083 238.875 53.625C235.333 52.5 232.083 51.9375 229.125 51.9375C227.083 51.9375 225.292 52.2083 223.75 52.75C222.25 53.2917 221.083 54.0833 220.25 55.125C219.417 56.125 219 57.3125 219 58.6875C219 60.5208 219.708 62.1458 221.125 63.5625C222.542 64.9375 224.417 66.2083 226.75 67.375C229.083 68.5417 231.625 69.7292 234.375 70.9375C237.375 72.2292 240.438 73.6667 243.562 75.25C246.729 76.8333 249.625 78.7083 252.25 80.875C254.917 83.0417 257.062 85.6458 258.688 88.6875C260.312 91.6875 261.125 95.2917 261.125 99.5C261.125 105.125 259.583 110.083 256.5 114.375C253.458 118.625 249.188 121.938 243.688 124.312C238.229 126.688 231.875 127.875 224.625 127.875C217.875 127.875 211.375 126.792 205.125 124.625C198.875 122.458 193.125 119.333 187.875 115.25ZM295.25 126H270.5V32.25H295.25V69.125H327.938V32.25H352.688V126H327.938V90.6875H295.25V126ZM412.5 127.875C405.333 127.875 398.708 126.667 392.625 124.25C386.583 121.792 381.312 118.375 376.812 114C372.354 109.583 368.896 104.417 366.438 98.5C363.979 92.5833 362.75 86.125 362.75 79.125C362.75 72.125 363.979 65.6667 366.438 59.75C368.896 53.8333 372.354 48.6875 376.812 44.3125C381.312 39.8958 386.583 36.4792 392.625 34.0625C398.708 31.6042 405.333 30.375 412.5 30.375C419.708 30.375 426.333 31.6042 432.375 34.0625C438.417 36.4792 443.646 39.8958 448.062 44.3125C452.521 48.6875 455.979 53.8333 458.438 59.75C460.896 65.6667 462.125 72.125 462.125 79.125C462.125 86.125 460.896 92.5833 458.438 98.5C455.979 104.417 452.521 109.583 448.062 114C443.646 118.375 438.417 121.792 432.375 124.25C426.333 126.667 419.708 127.875 412.5 127.875ZM412.5 106.312C415.958 106.312 419.167 105.625 422.125 104.25C425.083 102.875 427.646 100.958 429.812 98.5C432.021 96 433.729 93.1042 434.938 89.8125C436.188 86.5208 436.812 82.9583 436.812 79.125C436.812 75.2917 436.188 71.7292 434.938 68.4375C433.729 65.1458 432.021 62.2708 429.812 59.8125C427.646 57.3125 425.083 55.375 422.125 54C419.167 52.625 415.958 51.9375 412.5 51.9375C409.042 51.9375 405.812 52.625 402.812 54C399.854 55.375 397.271 57.3125 395.062 59.8125C392.854 62.2708 391.125 65.1458 389.875 68.4375C388.667 71.7292 388.062 75.2917 388.062 79.125C388.062 82.9583 388.667 86.5208 389.875 89.8125C391.125 93.1042 392.854 96 395.062 98.5C397.271 100.958 399.854 102.875 402.812 104.25C405.812 105.625 409.042 106.312 412.5 106.312ZM556.125 32.25V83.6875C556.125 92.8542 554.438 100.75 551.062 107.375C547.729 113.958 542.917 119.021 536.625 122.562C530.375 126.104 522.875 127.875 514.125 127.875C505.417 127.875 497.917 126.104 491.625 122.562C485.333 119.021 480.5 113.958 477.125 107.375C473.792 100.75 472.125 92.8542 472.125 83.6875V32.25H496.875V80.3125C496.875 86.2708 497.479 91.1667 498.688 95C499.938 98.8333 501.833 101.688 504.375 103.562C506.917 105.396 510.167 106.312 514.125 106.312C518.083 106.312 521.333 105.396 523.875 103.562C526.417 101.688 528.292 98.8333 529.5 95C530.75 91.1667 531.375 86.2708 531.375 80.3125V32.25H556.125ZM613.75 126H589V53.8125H563V32.25H639.75V53.8125H613.75V126ZM693.875 127.875C686.708 127.875 680.083 126.667 674 124.25C667.958 121.792 662.688 118.375 658.188 114C653.729 109.583 650.271 104.417 647.812 98.5C645.354 92.5833 644.125 86.125 644.125 79.125C644.125 72.125 645.354 65.6667 647.812 59.75C650.271 53.8333 653.729 48.6875 658.188 44.3125C662.688 39.8958 667.958 36.4792 674 34.0625C680.083 31.6042 686.708 30.375 693.875 30.375C701.083 30.375 707.708 31.6042 713.75 34.0625C719.792 36.4792 725.021 39.8958 729.438 44.3125C733.896 48.6875 737.354 53.8333 739.812 59.75C742.271 65.6667 743.5 72.125 743.5 79.125C743.5 86.125 742.271 92.5833 739.812 98.5C737.354 104.417 733.896 109.583 729.438 114C725.021 118.375 719.792 121.792 713.75 124.25C707.708 126.667 701.083 127.875 693.875 127.875ZM693.875 106.312C697.333 106.312 700.542 105.625 703.5 104.25C706.458 102.875 709.021 100.958 711.188 98.5C713.396 96 715.104 93.1042 716.312 89.8125C717.562 86.5208 718.188 82.9583 718.188 79.125C718.188 75.2917 717.562 71.7292 716.312 68.4375C715.104 65.1458 713.396 62.2708 711.188 59.8125C709.021 57.3125 706.458 55.375 703.5 54C700.542 52.625 697.333 51.9375 693.875 51.9375C690.417 51.9375 687.188 52.625 684.188 54C681.229 55.375 678.646 57.3125 676.438 59.8125C674.229 62.2708 672.5 65.1458 671.25 68.4375C670.042 71.7292 669.438 75.2917 669.438 79.125C669.438 82.9583 670.042 86.5208 671.25 89.8125C672.5 93.1042 674.229 96 676.438 98.5C678.646 100.958 681.229 102.875 684.188 104.25C687.188 105.625 690.417 106.312 693.875 106.312ZM837.5 32.25V83.6875C837.5 92.8542 835.812 100.75 832.438 107.375C829.104 113.958 824.292 119.021 818 122.562C811.75 126.104 804.25 127.875 795.5 127.875C786.792 127.875 779.292 126.104 773 122.562C766.708 119.021 761.875 113.958 758.5 107.375C755.167 100.75 753.5 92.8542 753.5 83.6875V32.25H778.25V80.3125C778.25 86.2708 778.854 91.1667 780.062 95C781.312 98.8333 783.208 101.688 785.75 103.562C788.292 105.396 791.542 106.312 795.5 106.312C799.458 106.312 802.708 105.396 805.25 103.562C807.792 101.688 809.667 98.8333 810.875 95C812.125 91.1667 812.75 86.2708 812.75 80.3125V32.25H837.5ZM895.125 126H870.375V53.8125H844.375V32.25H921.125V53.8125H895.125V126Z" fill="#222222"/>
<g filter="url(#filter0_i_3_5)">
<path d="M0 60C0 48.9543 8.95431 40 20 40C31.0457 40 40 48.9543 40 60V100C40 111.046 31.0457 120 20 120C8.95431 120 0 111.046 0 100V60Z" fill="#E34F00"/>
<path d="M0 60C0 48.9543 8.95431 40 20 40C31.0457 40 40 48.9543 40 60V100C40 111.046 31.0457 120 20 120C8.95431 120 0 111.046 0 100V60Z" fill="url(#paint0_radial_3_5)"/>
<path d="M0 60C0 48.9543 8.95431 40 20 40C31.0457 40 40 48.9543 40 60V100C40 111.046 31.0457 120 20 120C8.95431 120 0 111.046 0 100V60Z" fill="url(#paint1_radial_3_5)" fill-opacity="0.5"/>
</g>
<g filter="url(#filter1_i_3_5)">
<path d="M53 45C53 33.9543 61.9543 25 73 25C84.0457 25 93 33.9543 93 45V115C93 126.046 84.0457 135 73 135C61.9543 135 53 126.046 53 115V45Z" fill="#E34F00"/>
<path d="M53 45C53 33.9543 61.9543 25 73 25C84.0457 25 93 33.9543 93 45V115C93 126.046 84.0457 135 73 135C61.9543 135 53 126.046 53 115V45Z" fill="url(#paint2_radial_3_5)"/>
<path d="M53 45C53 33.9543 61.9543 25 73 25C84.0457 25 93 33.9543 93 45V115C93 126.046 84.0457 135 73 135C61.9543 135 53 126.046 53 115V45Z" fill="url(#paint3_radial_3_5)" fill-opacity="0.5"/>
</g>
<g filter="url(#filter2_i_3_5)">
<path d="M106 30C106 18.9543 114.954 10 126 10C137.046 10 146 18.9543 146 30V130C146 141.046 137.046 150 126 150C114.954 150 106 141.046 106 130V30Z" fill="#E34F00"/>
<path d="M106 30C106 18.9543 114.954 10 126 10C137.046 10 146 18.9543 146 30V130C146 141.046 137.046 150 126 150C114.954 150 106 141.046 106 130V30Z" fill="url(#paint4_radial_3_5)" fill-opacity="0.5"/>
</g>
<defs>
<filter id="filter0_i_3_5" x="-3" y="36" width="43" height="84" filterUnits="userSpaceOnUse" color-interpolation-filters="sRGB">
<feFlood flood-opacity="0" result="BackgroundImageFix"/>
<feBlend mode="normal" in="SourceGraphic" in2="BackgroundImageFix" result="shape"/>
<feColorMatrix in="SourceAlpha" type="matrix" values="0 0 0 0 0 0 0 0 0 0 0 0 0 0 0 0 0 0 127 0" result="hardAlpha"/>
<feOffset dx="-3" dy="-4"/>
<feGaussianBlur stdDeviation="3.5"/>
<feComposite in2="hardAlpha" operator="arithmetic" k2="-1" k3="1"/>
<feColorMatrix type="matrix" values="0 0 0 0 1 0 0 0 0 1 0 0 0 0 1 0 0 0 0.15 0"/>
<feBlend mode="normal" in2="shape" result="effect1_innerShadow_3_5"/>
</filter>
<filter id="filter1_i_3_5" x="50" y="21" width="43" height="114" filterUnits="userSpaceOnUse" color-interpolation-filters="sRGB">
<feFlood flood-opacity="0" result="BackgroundImageFix"/>
<feBlend mode="normal" in="SourceGraphic" in2="BackgroundImageFix" result="shape"/>
<feColorMatrix in="SourceAlpha" type="matrix" values="0 0 0 0 0 0 0 0 0 0 0 0 0 0 0 0 0 0 127 0" result="hardAlpha"/>
<feOffset dx="-3" dy="-4"/>
<feGaussianBlur stdDeviation="3.5"/>
<feComposite in2="hardAlpha" operator="arithmetic" k2="-1" k3="1"/>
<feColorMatrix type="matrix" values="0 0 0 0 1 0 0 0 0 1 0 0 0 0 1 0 0 0 0.15 0"/>
<feBlend mode="normal" in2="shape" result="effect1_innerShadow_3_5"/>
</filter>
<filter id="filter2_i_3_5" x="103" y="6" width="43" height="144" filterUnits="userSpaceOnUse" color-interpolation-filters="sRGB">
<feFlood flood-opacity="0" result="BackgroundImageFix"/>
<feBlend mode="normal" in="SourceGraphic" in2="BackgroundImageFix" result="shape"/>
<feColorMatrix in="SourceAlpha" type="matrix" values="0 0 0 0 0 0 0 0 0 0 0 0 0 0 0 0 0 0 127 0" result="hardAlpha"/>
<feOffset dx="-3" dy="-4"/>
<feGaussianBlur stdDeviation="3.5"/>
<feComposite in2="hardAlpha" operator="arithmetic" k2="-1" k3="1"/>
<feColorMatrix type="matrix" values="0 0 0 0 1 0 0 0 0 1 0 0 0 0 1 0 0 0 0.15 0"/>
<feBlend mode="normal" in2="shape" result="effect1_innerShadow_3_5"/>
</filter>
<radialGradient id="paint0_radial_3_5" cx="0" cy="0" r="1" gradientTransform="matrix(17.0492 50.4918 -25.2459 34.0984 12.7869 55.7377)" gradientUnits="userSpaceOnUse">
<stop stop-color="#CC4B06"/>
<stop offset="0.697917" stop-color="#CC4B06" stop-opacity="0"/>
<stop offset="1" stop-color="#CC4B06" stop-opacity="0"/>
</radialGradient>
<radialGradient id="paint1_radial_3_5" cx="0" cy="0" r="1" gradientTransform="matrix(17.0492 50.4918 -25.2459 34.0984 12.7869 55.7377)" gradientUnits="userSpaceOnUse">
<stop stop-color="white"/>
<stop offset="0.625" stop-color="white" stop-opacity="0"/>
<stop offset="1" stop-color="white" stop-opacity="0"/>
</radialGradient>
<radialGradient id="paint2_radial_3_5" cx="0" cy="0" r="1" gradientTransform="matrix(17.0492 69.4262 -25.2459 46.8852 65.7869 46.6393)" gradientUnits="userSpaceOnUse">
<stop stop-color="#CC4B06"/>
<stop offset="0.697917" stop-color="#CC4B06" stop-opacity="0"/>
<stop offset="1" stop-color="#CC4B06" stop-opacity="0"/>
</radialGradient>
<radialGradient id="paint3_radial_3_5" cx="0" cy="0" r="1" gradientTransform="matrix(17.0492 69.4262 -25.2459 46.8852 65.7869 46.6393)" gradientUnits="userSpaceOnUse">
<stop stop-color="white"/>
<stop offset="0.625" stop-color="white" stop-opacity="0"/>
<stop offset="1" stop-color="white" stop-opacity="0"/>
</radialGradient>
<radialGradient id="paint4_radial_3_5" cx="0" cy="0" r="1" gradientTransform="matrix(17.0492 88.3607 -25.2459 59.6721 118.787 37.541)" gradientUnits="userSpaceOnUse">
<stop stop-color="white"/>
<stop offset="0.625" stop-color="white" stop-opacity="0"/>
<stop offset="1" stop-color="white" stop-opacity="0"/>
</radialGradient>
</defs>
</svg>
