<svg width="1080" height="982" viewBox="0 0 1080 982" fill="none" xmlns="http://www.w3.org/2000/svg">
<path d="M771.156 70.4106C512.472 -58.6558 205.856 -8.83769 66.1174 216.965C-73.6217 442.767 15.3672 743.211 264.977 888.059C387.623 959.203 585.601 1031.88 666.044 934.977C744.9 840.032 628.578 779.88 655.715 727.332C699.417 642.795 894.86 753.704 1022.7 617.045C1166.76 462.984 1023.06 196.15 771.156 70.4106ZM848.572 566.575C781.258 566.575 732.858 518.52 732.858 453.347C732.858 388.174 781.258 340.118 848.572 340.118C915.887 340.118 964.287 388.174 964.287 453.347C964.287 518.52 915.887 566.575 848.572 566.575Z" fill="url(#paint0_linear_48413_642)"/>
<path d="M771.156 70.4106C512.472 -58.6558 205.856 -8.83769 66.1174 216.965C-73.6217 442.767 15.3672 743.211 264.977 888.059C387.623 959.203 585.601 1031.88 666.044 934.977C744.9 840.032 628.578 779.88 655.715 727.332C699.417 642.795 894.86 753.704 1022.7 617.045C1166.76 462.984 1023.06 196.15 771.156 70.4106ZM848.572 566.575C781.258 566.575 732.858 518.52 732.858 453.347C732.858 388.174 781.258 340.118 848.572 340.118C915.887 340.118 964.287 388.174 964.287 453.347C964.287 518.52 915.887 566.575 848.572 566.575Z" fill="url(#paint1_radial_48413_642)"/>
<path d="M771.156 70.4106C512.472 -58.6558 205.856 -8.83769 66.1174 216.965C-73.6217 442.767 15.3672 743.211 264.977 888.059C387.623 959.203 585.601 1031.88 666.044 934.977C744.9 840.032 628.578 779.88 655.715 727.332C699.417 642.795 894.86 753.704 1022.7 617.045C1166.76 462.984 1023.06 196.15 771.156 70.4106ZM848.572 566.575C781.258 566.575 732.858 518.52 732.858 453.347C732.858 388.174 781.258 340.118 848.572 340.118C915.887 340.118 964.287 388.174 964.287 453.347C964.287 518.52 915.887 566.575 848.572 566.575Z" fill="url(#paint2_radial_48413_642)"/>
<path d="M771.156 70.4106C512.472 -58.6558 205.856 -8.83769 66.1174 216.965C-73.6217 442.767 15.3672 743.211 264.977 888.059C387.623 959.203 585.601 1031.88 666.044 934.977C744.9 840.032 628.578 779.88 655.715 727.332C699.417 642.795 894.86 753.704 1022.7 617.045C1166.76 462.984 1023.06 196.15 771.156 70.4106ZM848.572 566.575C781.258 566.575 732.858 518.52 732.858 453.347C732.858 388.174 781.258 340.118 848.572 340.118C915.887 340.118 964.287 388.174 964.287 453.347C964.287 518.52 915.887 566.575 848.572 566.575Z" fill="url(#paint3_radial_48413_642)"/>
<path d="M771.156 70.4106C512.472 -58.6558 205.856 -8.83769 66.1174 216.965C-73.6217 442.767 15.3672 743.211 264.977 888.059C387.623 959.203 585.601 1031.88 666.044 934.977C744.9 840.032 628.578 779.88 655.715 727.332C699.417 642.795 894.86 753.704 1022.7 617.045C1166.76 462.984 1023.06 196.15 771.156 70.4106ZM848.572 566.575C781.258 566.575 732.858 518.52 732.858 453.347C732.858 388.174 781.258 340.118 848.572 340.118C915.887 340.118 964.287 388.174 964.287 453.347C964.287 518.52 915.887 566.575 848.572 566.575Z" fill="url(#paint4_radial_48413_642)"/>
<path d="M771.156 70.4106C512.472 -58.6558 205.856 -8.83769 66.1174 216.965C-73.6217 442.767 15.3672 743.211 264.977 888.059C387.623 959.203 585.601 1031.88 666.044 934.977C744.9 840.032 628.578 779.88 655.715 727.332C699.417 642.795 894.86 753.704 1022.7 617.045C1166.76 462.984 1023.06 196.15 771.156 70.4106ZM848.572 566.575C781.258 566.575 732.858 518.52 732.858 453.347C732.858 388.174 781.258 340.118 848.572 340.118C915.887 340.118 964.287 388.174 964.287 453.347C964.287 518.52 915.887 566.575 848.572 566.575Z" fill="url(#paint5_radial_48413_642)"/>
<path d="M771.156 70.4106C512.472 -58.6558 205.856 -8.83769 66.1174 216.965C-73.6217 442.767 15.3672 743.211 264.977 888.059C387.623 959.203 585.601 1031.88 666.044 934.977C744.9 840.032 628.578 779.88 655.715 727.332C699.417 642.795 894.86 753.704 1022.7 617.045C1166.76 462.984 1023.06 196.15 771.156 70.4106ZM848.572 566.575C781.258 566.575 732.858 518.52 732.858 453.347C732.858 388.174 781.258 340.118 848.572 340.118C915.887 340.118 964.287 388.174 964.287 453.347C964.287 518.52 915.887 566.575 848.572 566.575Z" fill="url(#paint6_radial_48413_642)"/>
<path d="M771.156 70.4106C512.472 -58.6558 205.856 -8.83769 66.1174 216.965C-73.6217 442.767 15.3672 743.211 264.977 888.059C387.623 959.203 585.601 1031.88 666.044 934.977C744.9 840.032 628.578 779.88 655.715 727.332C699.417 642.795 894.86 753.704 1022.7 617.045C1166.76 462.984 1023.06 196.15 771.156 70.4106ZM848.572 566.575C781.258 566.575 732.858 518.52 732.858 453.347C732.858 388.174 781.258 340.118 848.572 340.118C915.887 340.118 964.287 388.174 964.287 453.347C964.287 518.52 915.887 566.575 848.572 566.575Z" fill="url(#paint7_radial_48413_642)"/>
<path d="M771.156 70.4106C512.472 -58.6558 205.856 -8.83769 66.1174 216.965C-73.6217 442.767 15.3672 743.211 264.977 888.059C387.623 959.203 585.601 1031.88 666.044 934.977C744.9 840.032 628.578 779.88 655.715 727.332C699.417 642.795 894.86 753.704 1022.7 617.045C1166.76 462.984 1023.06 196.15 771.156 70.4106ZM848.572 566.575C781.258 566.575 732.858 518.52 732.858 453.347C732.858 388.174 781.258 340.118 848.572 340.118C915.887 340.118 964.287 388.174 964.287 453.347C964.287 518.52 915.887 566.575 848.572 566.575Z" fill="url(#paint8_radial_48413_642)"/>
<path d="M771.156 70.4106C512.472 -58.6558 205.856 -8.83769 66.1174 216.965C-73.6217 442.767 15.3672 743.211 264.977 888.059C387.623 959.203 585.601 1031.88 666.044 934.977C744.9 840.032 628.578 779.88 655.715 727.332C699.417 642.795 894.86 753.704 1022.7 617.045C1166.76 462.984 1023.06 196.15 771.156 70.4106ZM848.572 566.575C781.258 566.575 732.858 518.52 732.858 453.347C732.858 388.174 781.258 340.118 848.572 340.118C915.887 340.118 964.287 388.174 964.287 453.347C964.287 518.52 915.887 566.575 848.572 566.575Z" fill="url(#paint9_radial_48413_642)"/>
<path d="M771.156 70.4106C512.472 -58.6558 205.856 -8.83769 66.1174 216.965C-73.6217 442.767 15.3672 743.211 264.977 888.059C387.623 959.203 585.601 1031.88 666.044 934.977C744.9 840.032 628.578 779.88 655.715 727.332C699.417 642.795 894.86 753.704 1022.7 617.045C1166.76 462.984 1023.06 196.15 771.156 70.4106ZM848.572 566.575C781.258 566.575 732.858 518.52 732.858 453.347C732.858 388.174 781.258 340.118 848.572 340.118C915.887 340.118 964.287 388.174 964.287 453.347C964.287 518.52 915.887 566.575 848.572 566.575Z" fill="url(#paint10_radial_48413_642)"/>
<path d="M771.156 70.4106C512.472 -58.6558 205.856 -8.83769 66.1174 216.965C-73.6217 442.767 15.3672 743.211 264.977 888.059C387.623 959.203 585.601 1031.88 666.044 934.977C744.9 840.032 628.578 779.88 655.715 727.332C699.417 642.795 894.86 753.704 1022.7 617.045C1166.76 462.984 1023.06 196.15 771.156 70.4106ZM848.572 566.575C781.258 566.575 732.858 518.52 732.858 453.347C732.858 388.174 781.258 340.118 848.572 340.118C915.887 340.118 964.287 388.174 964.287 453.347C964.287 518.52 915.887 566.575 848.572 566.575Z" fill="url(#paint11_radial_48413_642)"/>
<path d="M771.156 70.4106C512.472 -58.6558 205.856 -8.83769 66.1174 216.965C-73.6217 442.767 15.3672 743.211 264.977 888.059C387.623 959.203 585.601 1031.88 666.044 934.977C744.9 840.032 628.578 779.88 655.715 727.332C699.417 642.795 894.86 753.704 1022.7 617.045C1166.76 462.984 1023.06 196.15 771.156 70.4106ZM848.572 566.575C781.258 566.575 732.858 518.52 732.858 453.347C732.858 388.174 781.258 340.118 848.572 340.118C915.887 340.118 964.287 388.174 964.287 453.347C964.287 518.52 915.887 566.575 848.572 566.575Z" fill="url(#paint12_radial_48413_642)"/>
<path d="M771.156 70.4106C512.472 -58.6558 205.856 -8.83769 66.1174 216.965C-73.6217 442.767 15.3672 743.211 264.977 888.059C387.623 959.203 585.601 1031.88 666.044 934.977C744.9 840.032 628.578 779.88 655.715 727.332C699.417 642.795 894.86 753.704 1022.7 617.045C1166.76 462.984 1023.06 196.15 771.156 70.4106ZM848.572 566.575C781.258 566.575 732.858 518.52 732.858 453.347C732.858 388.174 781.258 340.118 848.572 340.118C915.887 340.118 964.287 388.174 964.287 453.347C964.287 518.52 915.887 566.575 848.572 566.575Z" fill="url(#paint13_radial_48413_642)"/>
<path d="M771.156 70.4106C512.472 -58.6558 205.856 -8.83769 66.1174 216.965C-73.6217 442.767 15.3672 743.211 264.977 888.059C387.623 959.203 585.601 1031.88 666.044 934.977C744.9 840.032 628.578 779.88 655.715 727.332C699.417 642.795 894.86 753.704 1022.7 617.045C1166.76 462.984 1023.06 196.15 771.156 70.4106ZM848.572 566.575C781.258 566.575 732.858 518.52 732.858 453.347C732.858 388.174 781.258 340.118 848.572 340.118C915.887 340.118 964.287 388.174 964.287 453.347C964.287 518.52 915.887 566.575 848.572 566.575Z" fill="url(#paint14_radial_48413_642)"/>
<path d="M771.156 70.4106C512.472 -58.6558 205.856 -8.83769 66.1174 216.965C-73.6217 442.767 15.3672 743.211 264.977 888.059C387.623 959.203 585.601 1031.88 666.044 934.977C744.9 840.032 628.578 779.88 655.715 727.332C699.417 642.795 894.86 753.704 1022.7 617.045C1166.76 462.984 1023.06 196.15 771.156 70.4106ZM848.572 566.575C781.258 566.575 732.858 518.52 732.858 453.347C732.858 388.174 781.258 340.118 848.572 340.118C915.887 340.118 964.287 388.174 964.287 453.347C964.287 518.52 915.887 566.575 848.572 566.575Z" fill="url(#paint15_radial_48413_642)"/>
<path d="M771.156 70.4106C512.472 -58.6558 205.856 -8.83769 66.1174 216.965C-73.6217 442.767 15.3672 743.211 264.977 888.059C387.623 959.203 585.601 1031.88 666.044 934.977C744.9 840.032 628.578 779.88 655.715 727.332C699.417 642.795 894.86 753.704 1022.7 617.045C1166.76 462.984 1023.06 196.15 771.156 70.4106ZM848.572 566.575C781.258 566.575 732.858 518.52 732.858 453.347C732.858 388.174 781.258 340.118 848.572 340.118C915.887 340.118 964.287 388.174 964.287 453.347C964.287 518.52 915.887 566.575 848.572 566.575Z" fill="url(#paint16_radial_48413_642)"/>
<path d="M771.156 70.4106C512.472 -58.6558 205.856 -8.83769 66.1174 216.965C-73.6217 442.767 15.3672 743.211 264.977 888.059C387.623 959.203 585.601 1031.88 666.044 934.977C744.9 840.032 628.578 779.88 655.715 727.332C699.417 642.795 894.86 753.704 1022.7 617.045C1166.76 462.984 1023.06 196.15 771.156 70.4106ZM848.572 566.575C781.258 566.575 732.858 518.52 732.858 453.347C732.858 388.174 781.258 340.118 848.572 340.118C915.887 340.118 964.287 388.174 964.287 453.347C964.287 518.52 915.887 566.575 848.572 566.575Z" fill="url(#paint17_radial_48413_642)"/>
<path d="M771.156 70.4106C512.472 -58.6558 205.856 -8.83769 66.1174 216.965C-73.6217 442.767 15.3672 743.211 264.977 888.059C387.623 959.203 585.601 1031.88 666.044 934.977C744.9 840.032 628.578 779.88 655.715 727.332C699.417 642.795 894.86 753.704 1022.7 617.045C1166.76 462.984 1023.06 196.15 771.156 70.4106ZM848.572 566.575C781.258 566.575 732.858 518.52 732.858 453.347C732.858 388.174 781.258 340.118 848.572 340.118C915.887 340.118 964.287 388.174 964.287 453.347C964.287 518.52 915.887 566.575 848.572 566.575Z" fill="url(#paint18_radial_48413_642)"/>
<path d="M771.156 70.4106C512.472 -58.6558 205.856 -8.83769 66.1174 216.965C-73.6217 442.767 15.3672 743.211 264.977 888.059C387.623 959.203 585.601 1031.88 666.044 934.977C744.9 840.032 628.578 779.88 655.715 727.332C699.417 642.795 894.86 753.704 1022.7 617.045C1166.76 462.984 1023.06 196.15 771.156 70.4106ZM848.572 566.575C781.258 566.575 732.858 518.52 732.858 453.347C732.858 388.174 781.258 340.118 848.572 340.118C915.887 340.118 964.287 388.174 964.287 453.347C964.287 518.52 915.887 566.575 848.572 566.575Z" fill="url(#paint19_radial_48413_642)"/>
<path d="M771.156 70.4106C512.472 -58.6558 205.856 -8.83769 66.1174 216.965C-73.6217 442.767 15.3672 743.211 264.977 888.059C387.623 959.203 585.601 1031.88 666.044 934.977C744.9 840.032 628.578 779.88 655.715 727.332C699.417 642.795 894.86 753.704 1022.7 617.045C1166.76 462.984 1023.06 196.15 771.156 70.4106ZM848.572 566.575C781.258 566.575 732.858 518.52 732.858 453.347C732.858 388.174 781.258 340.118 848.572 340.118C915.887 340.118 964.287 388.174 964.287 453.347C964.287 518.52 915.887 566.575 848.572 566.575Z" fill="url(#paint20_radial_48413_642)"/>
<path d="M771.156 70.4106C512.472 -58.6558 205.856 -8.83769 66.1174 216.965C-73.6217 442.767 15.3672 743.211 264.977 888.059C387.623 959.203 585.601 1031.88 666.044 934.977C744.9 840.032 628.578 779.88 655.715 727.332C699.417 642.795 894.86 753.704 1022.7 617.045C1166.76 462.984 1023.06 196.15 771.156 70.4106ZM848.572 566.575C781.258 566.575 732.858 518.52 732.858 453.347C732.858 388.174 781.258 340.118 848.572 340.118C915.887 340.118 964.287 388.174 964.287 453.347C964.287 518.52 915.887 566.575 848.572 566.575Z" fill="url(#paint21_radial_48413_642)"/>
<path d="M771.156 70.4106C512.472 -58.6558 205.856 -8.83769 66.1174 216.965C-73.6217 442.767 15.3672 743.211 264.977 888.059C387.623 959.203 585.601 1031.88 666.044 934.977C744.9 840.032 628.578 779.88 655.715 727.332C699.417 642.795 894.86 753.704 1022.7 617.045C1166.76 462.984 1023.06 196.15 771.156 70.4106ZM848.572 566.575C781.258 566.575 732.858 518.52 732.858 453.347C732.858 388.174 781.258 340.118 848.572 340.118C915.887 340.118 964.287 388.174 964.287 453.347C964.287 518.52 915.887 566.575 848.572 566.575Z" fill="url(#paint22_radial_48413_642)"/>
<path d="M771.156 70.4106C512.472 -58.6558 205.856 -8.83769 66.1174 216.965C-73.6217 442.767 15.3672 743.211 264.977 888.059C387.623 959.203 585.601 1031.88 666.044 934.977C744.9 840.032 628.578 779.88 655.715 727.332C699.417 642.795 894.86 753.704 1022.7 617.045C1166.76 462.984 1023.06 196.15 771.156 70.4106ZM848.572 566.575C781.258 566.575 732.858 518.52 732.858 453.347C732.858 388.174 781.258 340.118 848.572 340.118C915.887 340.118 964.287 388.174 964.287 453.347C964.287 518.52 915.887 566.575 848.572 566.575Z" fill="url(#paint23_radial_48413_642)"/>
<path d="M771.156 70.4106C512.472 -58.6558 205.856 -8.83769 66.1174 216.965C-73.6217 442.767 15.3672 743.211 264.977 888.059C387.623 959.203 585.601 1031.88 666.044 934.977C744.9 840.032 628.578 779.88 655.715 727.332C699.417 642.795 894.86 753.704 1022.7 617.045C1166.76 462.984 1023.06 196.15 771.156 70.4106ZM848.572 566.575C781.258 566.575 732.858 518.52 732.858 453.347C732.858 388.174 781.258 340.118 848.572 340.118C915.887 340.118 964.287 388.174 964.287 453.347C964.287 518.52 915.887 566.575 848.572 566.575Z" fill="url(#paint24_radial_48413_642)"/>
<path d="M478.484 267.772C525.943 267.772 564.415 229.299 564.415 181.841C564.415 134.383 525.943 95.9106 478.484 95.9106C431.026 95.9106 392.554 134.383 392.554 181.841C392.554 229.299 431.026 267.772 478.484 267.772Z" fill="url(#paint25_linear_48413_642)"/>
<path d="M478.484 267.772C525.943 267.772 564.415 229.299 564.415 181.841C564.415 134.383 525.943 95.9106 478.484 95.9106C431.026 95.9106 392.554 134.383 392.554 181.841C392.554 229.299 431.026 267.772 478.484 267.772Z" fill="url(#paint26_radial_48413_642)"/>
<path d="M478.484 267.772C525.943 267.772 564.415 229.299 564.415 181.841C564.415 134.383 525.943 95.9106 478.484 95.9106C431.026 95.9106 392.554 134.383 392.554 181.841C392.554 229.299 431.026 267.772 478.484 267.772Z" fill="url(#paint27_radial_48413_642)" fill-opacity="0.7"/>
<path d="M478.484 267.772C525.943 267.772 564.415 229.299 564.415 181.841C564.415 134.383 525.943 95.9106 478.484 95.9106C431.026 95.9106 392.554 134.383 392.554 181.841C392.554 229.299 431.026 267.772 478.484 267.772Z" fill="url(#paint28_radial_48413_642)" fill-opacity="0.7"/>
<path d="M249.336 420.537C296.794 420.537 335.267 382.065 335.267 334.607C335.267 287.149 296.794 248.676 249.336 248.676C201.878 248.676 163.405 287.149 163.405 334.607C163.405 382.065 201.878 420.537 249.336 420.537Z" fill="url(#paint29_linear_48413_642)"/>
<path d="M249.336 420.537C296.794 420.537 335.267 382.065 335.267 334.607C335.267 287.149 296.794 248.676 249.336 248.676C201.878 248.676 163.405 287.149 163.405 334.607C163.405 382.065 201.878 420.537 249.336 420.537Z" fill="url(#paint30_radial_48413_642)"/>
<path d="M249.336 420.537C296.794 420.537 335.267 382.065 335.267 334.607C335.267 287.149 296.794 248.676 249.336 248.676C201.878 248.676 163.405 287.149 163.405 334.607C163.405 382.065 201.878 420.537 249.336 420.537Z" fill="url(#paint31_radial_48413_642)" fill-opacity="0.9"/>
<path d="M249.336 420.537C296.794 420.537 335.267 382.065 335.267 334.607C335.267 287.149 296.794 248.676 249.336 248.676C201.878 248.676 163.405 287.149 163.405 334.607C163.405 382.065 201.878 420.537 249.336 420.537Z" fill="url(#paint32_radial_48413_642)" fill-opacity="0.8"/>
<path d="M249.336 687.877C296.794 687.877 335.267 649.405 335.267 601.947C335.267 554.488 296.794 516.016 249.336 516.016C201.878 516.016 163.405 554.488 163.405 601.947C163.405 649.405 201.878 687.877 249.336 687.877Z" fill="url(#paint33_linear_48413_642)"/>
<path d="M249.336 687.877C296.794 687.877 335.267 649.405 335.267 601.947C335.267 554.488 296.794 516.016 249.336 516.016C201.878 516.016 163.405 554.488 163.405 601.947C163.405 649.405 201.878 687.877 249.336 687.877Z" fill="url(#paint34_radial_48413_642)" fill-opacity="0.8"/>
<path d="M249.336 687.877C296.794 687.877 335.267 649.405 335.267 601.947C335.267 554.488 296.794 516.016 249.336 516.016C201.878 516.016 163.405 554.488 163.405 601.947C163.405 649.405 201.878 687.877 249.336 687.877Z" fill="url(#paint35_radial_48413_642)"/>
<path d="M249.336 687.877C296.794 687.877 335.267 649.405 335.267 601.947C335.267 554.488 296.794 516.016 249.336 516.016C201.878 516.016 163.405 554.488 163.405 601.947C163.405 649.405 201.878 687.877 249.336 687.877Z" fill="url(#paint36_radial_48413_642)" fill-opacity="0.7"/>
<path d="M459.389 859.738C506.847 859.738 545.319 821.266 545.319 773.808C545.319 726.35 506.847 687.877 459.389 687.877C411.93 687.877 373.458 726.35 373.458 773.808C373.458 821.266 411.93 859.738 459.389 859.738Z" fill="url(#paint37_linear_48413_642)"/>
<path d="M459.389 859.738C506.847 859.738 545.319 821.266 545.319 773.808C545.319 726.35 506.847 687.877 459.389 687.877C411.93 687.877 373.458 726.35 373.458 773.808C373.458 821.266 411.93 859.738 459.389 859.738Z" fill="url(#paint38_radial_48413_642)" fill-opacity="0.9"/>
<path d="M459.389 859.738C506.847 859.738 545.319 821.266 545.319 773.808C545.319 726.35 506.847 687.877 459.389 687.877C411.93 687.877 373.458 726.35 373.458 773.808C373.458 821.266 411.93 859.738 459.389 859.738Z" fill="url(#paint39_radial_48413_642)"/>
<path d="M459.389 859.738C506.847 859.738 545.319 821.266 545.319 773.808C545.319 726.35 506.847 687.877 459.389 687.877C411.93 687.877 373.458 726.35 373.458 773.808C373.458 821.266 411.93 859.738 459.389 859.738Z" fill="url(#paint40_radial_48413_642)" fill-opacity="0.7"/>
<defs>
<linearGradient id="paint0_linear_48413_642" x1="848.572" y1="111.302" x2="453.132" y2="971.843" gradientUnits="userSpaceOnUse">
<stop stop-color="#FFB9A1"/>
<stop offset="1" stop-color="#FFB4AD"/>
</linearGradient>
<radialGradient id="paint1_radial_48413_642" cx="0" cy="0" r="1" gradientUnits="userSpaceOnUse" gradientTransform="translate(250.144 336.381) rotate(-45) scale(104.988 98.2286)">
<stop offset="0.731108" stop-color="#EDB88B"/>
<stop offset="0.907589" stop-color="#EDB88B" stop-opacity="0.62628"/>
<stop offset="1" stop-color="#EDB88B" stop-opacity="0"/>
</radialGradient>
<radialGradient id="paint2_radial_48413_642" cx="0" cy="0" r="1" gradientUnits="userSpaceOnUse" gradientTransform="translate(458.59 772.329) rotate(-52.9175) scale(109.01 102.95)">
<stop offset="0.790354" stop-color="#EDB88B"/>
<stop offset="0.877087" stop-color="#EDB88B" stop-opacity="0.62628"/>
<stop offset="1" stop-color="#EDB88B" stop-opacity="0"/>
</radialGradient>
<radialGradient id="paint3_radial_48413_642" cx="0" cy="0" r="1" gradientUnits="userSpaceOnUse" gradientTransform="translate(481.979 174.896) rotate(-36.1796) scale(103.098)">
<stop offset="0.731108" stop-color="#EDB88B"/>
<stop offset="0.849303" stop-color="#EDB88B" stop-opacity="0.62628"/>
<stop offset="1" stop-color="#EDB88B" stop-opacity="0"/>
</radialGradient>
<radialGradient id="paint4_radial_48413_642" cx="0" cy="0" r="1" gradientUnits="userSpaceOnUse" gradientTransform="translate(260.169 587.609) rotate(-51.0823) scale(95.4478 105.046)">
<stop offset="0.731108" stop-color="#EDB88B"/>
<stop offset="0.849303" stop-color="#EDB88B" stop-opacity="0.62628"/>
<stop offset="1" stop-color="#EDB88B" stop-opacity="0"/>
</radialGradient>
<radialGradient id="paint5_radial_48413_642" cx="0" cy="0" r="1" gradientUnits="userSpaceOnUse" gradientTransform="translate(467.843 194.331) rotate(134.605) scale(101.839 101.839)">
<stop offset="0.697311" stop-color="#CB758C"/>
<stop offset="0.846864" stop-color="#CB758C" stop-opacity="0.328536"/>
<stop offset="0.933982" stop-color="#CB758C" stop-opacity="0.0820441"/>
<stop offset="1" stop-color="#CB758C" stop-opacity="0"/>
</radialGradient>
<radialGradient id="paint6_radial_48413_642" cx="0" cy="0" r="1" gradientUnits="userSpaceOnUse" gradientTransform="translate(235.583 346.807) rotate(130.533) scale(101.819 101.819)">
<stop offset="0.671126" stop-color="#CB758C"/>
<stop offset="0.846864" stop-color="#CB758C" stop-opacity="0.328536"/>
<stop offset="0.933982" stop-color="#CB758C" stop-opacity="0.0820441"/>
<stop offset="1" stop-color="#CB758C" stop-opacity="0"/>
</radialGradient>
<radialGradient id="paint7_radial_48413_642" cx="0" cy="0" r="1" gradientUnits="userSpaceOnUse" gradientTransform="translate(235.058 616.026) rotate(120.104) scale(102.167 102.167)">
<stop offset="0.674132" stop-color="#CB758C"/>
<stop offset="0.769365" stop-color="#CB758C" stop-opacity="0.657704"/>
<stop offset="0.846864" stop-color="#CB758C" stop-opacity="0.328536"/>
<stop offset="0.933982" stop-color="#CB758C" stop-opacity="0.0820441"/>
<stop offset="1" stop-color="#CB758C" stop-opacity="0"/>
</radialGradient>
<radialGradient id="paint8_radial_48413_642" cx="0" cy="0" r="1" gradientUnits="userSpaceOnUse" gradientTransform="translate(445.451 786.565) rotate(122.115) scale(102.863 102.863)">
<stop offset="0.657242" stop-color="#CB758C"/>
<stop offset="0.846864" stop-color="#CB758C" stop-opacity="0.328536"/>
<stop offset="0.933982" stop-color="#CB758C" stop-opacity="0.0820441"/>
<stop offset="1" stop-color="#CB758C" stop-opacity="0"/>
</radialGradient>
<radialGradient id="paint9_radial_48413_642" cx="0" cy="0" r="1" gradientUnits="userSpaceOnUse" gradientTransform="translate(861.5 475.952) rotate(91.3236) scale(125.407 138.018)">
<stop offset="0.750875" stop-color="#FFA575"/>
<stop offset="0.935982" stop-color="#FFA575" stop-opacity="0.113453"/>
<stop offset="1" stop-color="#FFA575" stop-opacity="0"/>
</radialGradient>
<radialGradient id="paint10_radial_48413_642" cx="0" cy="0" r="1" gradientUnits="userSpaceOnUse" gradientTransform="translate(854.093 443.26) rotate(-89.4534) scale(139.096 144.722)">
<stop offset="0.699974" stop-color="#EF8096"/>
<stop offset="0.797633" stop-color="#EF8096" stop-opacity="0.816692"/>
<stop offset="0.920191" stop-color="#EF8096" stop-opacity="0.219224"/>
<stop offset="1" stop-color="#EF8096" stop-opacity="0"/>
</radialGradient>
<radialGradient id="paint11_radial_48413_642" cx="0" cy="0" r="1" gradientUnits="userSpaceOnUse" gradientTransform="translate(726.284 756.266) rotate(-122.126) scale(89.3186 89.3186)">
<stop stop-color="#EF8096"/>
<stop offset="0.682529" stop-color="#EF8096" stop-opacity="0.816692"/>
<stop offset="0.85691" stop-color="#EF8096" stop-opacity="0.219224"/>
<stop offset="1" stop-color="#EF8096" stop-opacity="0"/>
</radialGradient>
<radialGradient id="paint12_radial_48413_642" cx="0" cy="0" r="1" gradientUnits="userSpaceOnUse" gradientTransform="translate(814.865 737.931) rotate(-88.3317) scale(82.0521 198.95)">
<stop stop-color="#EF8096"/>
<stop offset="0.604536" stop-color="#EF8096" stop-opacity="0.816692"/>
<stop offset="0.848377" stop-color="#EF8096" stop-opacity="0.219224"/>
<stop offset="0.925103" stop-color="#EF8096" stop-opacity="0.094621"/>
<stop offset="1" stop-color="#EF8096" stop-opacity="0"/>
</radialGradient>
<radialGradient id="paint13_radial_48413_642" cx="0" cy="0" r="1" gradientUnits="userSpaceOnUse" gradientTransform="translate(917.586 737.135) rotate(-104.769) scale(90.5842 286.918)">
<stop stop-color="#EF8096"/>
<stop offset="0.638576" stop-color="#EF8096" stop-opacity="0.816692"/>
<stop offset="0.869861" stop-color="#EF8096" stop-opacity="0.219224"/>
<stop offset="0.931335" stop-color="#EF8096" stop-opacity="0.0949471"/>
<stop offset="1" stop-color="#EF8096" stop-opacity="0"/>
</radialGradient>
<radialGradient id="paint14_radial_48413_642" cx="0" cy="0" r="1" gradientUnits="userSpaceOnUse" gradientTransform="translate(1014.31 692.445) rotate(-126.853) scale(87.2597 258.831)">
<stop stop-color="#EF8096"/>
<stop offset="0.535628" stop-color="#EF8096" stop-opacity="0.816692"/>
<stop offset="0.84473" stop-color="#EF8096" stop-opacity="0.219224"/>
<stop offset="0.923387" stop-color="#EF8096" stop-opacity="0.0949471"/>
<stop offset="1" stop-color="#EF8096" stop-opacity="0"/>
</radialGradient>
<radialGradient id="paint15_radial_48413_642" cx="0" cy="0" r="1" gradientUnits="userSpaceOnUse" gradientTransform="translate(1082.02 613.391) rotate(-143.939) scale(75.3168 326.752)">
<stop stop-color="#EF8096"/>
<stop offset="0.55334" stop-color="#EF8096" stop-opacity="0.816692"/>
<stop offset="0.795708" stop-color="#EF8096" stop-opacity="0.219224"/>
<stop offset="0.893431" stop-color="#EF8096" stop-opacity="0.0949471"/>
<stop offset="1" stop-color="#EF8096" stop-opacity="0"/>
</radialGradient>
<radialGradient id="paint16_radial_48413_642" cx="0" cy="0" r="1" gradientUnits="userSpaceOnUse" gradientTransform="translate(834.995 460.381) rotate(-180) scale(142.084 141.758)">
<stop offset="0.730765" stop-color="#FFD59D"/>
<stop offset="0.80256" stop-color="#FFD59D" stop-opacity="0.745717"/>
<stop offset="0.862097" stop-color="#FFD59D" stop-opacity="0.439082"/>
<stop offset="0.939145" stop-color="#FFD59D" stop-opacity="0.0985126"/>
<stop offset="1" stop-color="#FFD59D" stop-opacity="0"/>
</radialGradient>
<radialGradient id="paint17_radial_48413_642" cx="0" cy="0" r="1" gradientUnits="userSpaceOnUse" gradientTransform="translate(690.002 820.806) rotate(150.357) scale(40.4378 137.811)">
<stop offset="0.189899" stop-color="#FFD59D"/>
<stop offset="0.506834" stop-color="#FFD59D" stop-opacity="0.51"/>
<stop offset="0.81188" stop-color="#FFD59D" stop-opacity="0.0985126"/>
<stop offset="1" stop-color="#FFD59D" stop-opacity="0"/>
</radialGradient>
<radialGradient id="paint18_radial_48413_642" cx="0" cy="0" r="1" gradientUnits="userSpaceOnUse" gradientTransform="translate(695.476 894.238) rotate(-177.72) scale(39.1318 136.205)">
<stop offset="0.117169" stop-color="#FFD59D"/>
<stop offset="0.514392" stop-color="#FFD59D" stop-opacity="0.439082"/>
<stop offset="0.764228" stop-color="#FFD59D" stop-opacity="0.0985126"/>
<stop offset="1" stop-color="#FFD59D" stop-opacity="0"/>
</radialGradient>
<radialGradient id="paint19_radial_48413_642" cx="0" cy="0" r="1" gradientUnits="userSpaceOnUse" gradientTransform="translate(654.976 947.796) rotate(-142.028) scale(32.6585 113.674)">
<stop offset="0.0897534" stop-color="#FFD59D"/>
<stop offset="0.447473" stop-color="#FFD59D" stop-opacity="0.439082"/>
<stop offset="0.742179" stop-color="#FFD59D" stop-opacity="0.0985126"/>
<stop offset="1" stop-color="#FFD59D" stop-opacity="0"/>
</radialGradient>
<radialGradient id="paint20_radial_48413_642" cx="0" cy="0" r="1" gradientUnits="userSpaceOnUse" gradientTransform="translate(664.792 738.653) rotate(-139.602) scale(39.8745 39.8745)">
<stop offset="0.0897534" stop-color="#FFD59D"/>
<stop offset="0.457496" stop-color="#FFD59D" stop-opacity="0.439082"/>
<stop offset="0.838323" stop-color="#FFD59D" stop-opacity="0.0985126"/>
<stop offset="1" stop-color="#FFD59D" stop-opacity="0"/>
</radialGradient>
<radialGradient id="paint21_radial_48413_642" cx="0" cy="0" r="1" gradientUnits="userSpaceOnUse" gradientTransform="translate(668.699 973.822) rotate(-126.961) scale(61.6497 267.459)">
<stop stop-color="#EF8096"/>
<stop offset="0.462333" stop-color="#EF8096" stop-opacity="0.816692"/>
<stop offset="0.778047" stop-color="#EF8096" stop-opacity="0.219224"/>
<stop offset="0.888779" stop-color="#EF8096" stop-opacity="0.0949471"/>
<stop offset="1" stop-color="#EF8096" stop-opacity="0"/>
</radialGradient>
<radialGradient id="paint22_radial_48413_642" cx="0" cy="0" r="1" gradientUnits="userSpaceOnUse" gradientTransform="translate(607.613 429.864) rotate(173.8) scale(612.148 551.205)">
<stop offset="0.923762" stop-color="#EF8096" stop-opacity="0"/>
<stop offset="0.946269" stop-color="#EF8096" stop-opacity="0.219224"/>
<stop offset="0.980819" stop-color="#EF8096" stop-opacity="0.816692"/>
<stop offset="1" stop-color="#EF8096"/>
</radialGradient>
<radialGradient id="paint23_radial_48413_642" cx="0" cy="0" r="1" gradientUnits="userSpaceOnUse" gradientTransform="translate(478.357 648.315) rotate(-59.837) scale(644.759 631.095)">
<stop offset="0.944585" stop-color="#FFD59D" stop-opacity="0"/>
<stop offset="0.958508" stop-color="#FFD59D" stop-opacity="0.12"/>
<stop offset="0.968355" stop-color="#FFD59D" stop-opacity="0.24"/>
<stop offset="1" stop-color="#FFD59D"/>
</radialGradient>
<radialGradient id="paint24_radial_48413_642" cx="0" cy="0" r="1" gradientUnits="userSpaceOnUse" gradientTransform="translate(601.415 568.78) rotate(-144.716) scale(643.113 535.478)">
<stop offset="0.924582" stop-color="#FFA575" stop-opacity="0"/>
<stop offset="0.939759" stop-color="#FFA575" stop-opacity="0.12"/>
<stop offset="0.956056" stop-color="#FFA575" stop-opacity="0.32"/>
<stop offset="1" stop-color="#FFA575"/>
</radialGradient>
<linearGradient id="paint25_linear_48413_642" x1="428.157" y1="95.9106" x2="507.126" y2="287.331" gradientUnits="userSpaceOnUse">
<stop stop-color="#CC67F1"/>
<stop offset="1" stop-color="#C950FC"/>
</linearGradient>
<radialGradient id="paint26_radial_48413_642" cx="0" cy="0" r="1" gradientUnits="userSpaceOnUse" gradientTransform="translate(457.404 202.939) rotate(-35.1177) scale(114.841 91.4399)">
<stop stop-color="#DF7DFB" stop-opacity="0"/>
<stop offset="0.515625" stop-color="#DF7DFB" stop-opacity="0"/>
<stop offset="0.661458" stop-color="#DF7DFB" stop-opacity="0.21"/>
<stop offset="0.901132" stop-color="#DF7DFB"/>
<stop offset="1" stop-color="#DF7DFB"/>
</radialGradient>
<radialGradient id="paint27_radial_48413_642" cx="0" cy="0" r="1" gradientUnits="userSpaceOnUse" gradientTransform="translate(490.472 171.646) rotate(137.695) scale(102.811 94.345)">
<stop stop-color="#A242A3" stop-opacity="0"/>
<stop offset="0.5" stop-color="#A242A3" stop-opacity="0.0423604"/>
<stop offset="0.614583" stop-color="#A242A3" stop-opacity="0.12"/>
<stop offset="0.735907" stop-color="#A242A3" stop-opacity="0.35"/>
<stop offset="0.867278" stop-color="#A242A3" stop-opacity="0.73"/>
<stop offset="1" stop-color="#A242A3" stop-opacity="0.88"/>
</radialGradient>
<radialGradient id="paint28_radial_48413_642" cx="0" cy="0" r="1" gradientUnits="userSpaceOnUse" gradientTransform="translate(478.99 181.461) rotate(-32.7145) scale(85.1464)">
<stop stop-color="#A242A3" stop-opacity="0"/>
<stop offset="0.814788" stop-color="#A242A3" stop-opacity="0"/>
<stop offset="0.894071" stop-color="#A242A3" stop-opacity="0"/>
<stop offset="0.92581" stop-color="#A242A3" stop-opacity="0.06"/>
<stop offset="0.959925" stop-color="#A242A3" stop-opacity="0.31"/>
<stop offset="1" stop-color="#A242A3" stop-opacity="0.73"/>
</radialGradient>
<linearGradient id="paint29_linear_48413_642" x1="199.009" y1="248.676" x2="277.978" y2="440.096" gradientUnits="userSpaceOnUse">
<stop stop-color="#F9399F"/>
<stop offset="1" stop-color="#FD328C"/>
</linearGradient>
<radialGradient id="paint30_radial_48413_642" cx="0" cy="0" r="1" gradientUnits="userSpaceOnUse" gradientTransform="translate(228.255 355.704) rotate(-35.1177) scale(114.841 91.4399)">
<stop stop-color="#FF599E" stop-opacity="0"/>
<stop offset="0.472263" stop-color="#FF599E" stop-opacity="0"/>
<stop offset="0.608143" stop-color="#FF599E" stop-opacity="0.21"/>
<stop offset="0.793138" stop-color="#FF599E" stop-opacity="0.82"/>
<stop offset="0.901132" stop-color="#FF599E"/>
<stop offset="1" stop-color="#FF599E"/>
</radialGradient>
<radialGradient id="paint31_radial_48413_642" cx="0" cy="0" r="1" gradientUnits="userSpaceOnUse" gradientTransform="translate(267.483 326.395) rotate(140.725) scale(106.18 93.0281)">
<stop stop-color="#CE2C6A" stop-opacity="0"/>
<stop offset="0.66548" stop-color="#CE2C6A" stop-opacity="0"/>
<stop offset="0.704647" stop-color="#CE2C6A" stop-opacity="0.08"/>
<stop offset="0.790943" stop-color="#CE2C6A" stop-opacity="0.32"/>
<stop offset="0.906935" stop-color="#CE2C6A" stop-opacity="0.77"/>
<stop offset="1" stop-color="#CE2C6A"/>
</radialGradient>
<radialGradient id="paint32_radial_48413_642" cx="0" cy="0" r="1" gradientUnits="userSpaceOnUse" gradientTransform="translate(249.512 335.038) scale(87.5963)">
<stop stop-color="#CE2C6A" stop-opacity="0"/>
<stop offset="0.814788" stop-color="#CE2C6A" stop-opacity="0"/>
<stop offset="0.875709" stop-color="#CE2C6A" stop-opacity="0.05"/>
<stop offset="0.94411" stop-color="#CE2C6A" stop-opacity="0.4"/>
<stop offset="1" stop-color="#CE2C6A"/>
</radialGradient>
<linearGradient id="paint33_linear_48413_642" x1="199.009" y1="516.016" x2="277.978" y2="707.436" gradientUnits="userSpaceOnUse">
<stop stop-color="#47CFA8"/>
<stop offset="1" stop-color="#48ABEB"/>
</linearGradient>
<radialGradient id="paint34_radial_48413_642" cx="0" cy="0" r="1" gradientUnits="userSpaceOnUse" gradientTransform="translate(232.23 628.303) rotate(-38.4074) scale(114.805 91.4105)">
<stop stop-color="#5DE4BC" stop-opacity="0"/>
<stop offset="0.496795" stop-color="#5DE4BC" stop-opacity="0"/>
<stop offset="0.662646" stop-color="#5DE4BC" stop-opacity="0.21"/>
<stop offset="0.86595" stop-color="#5DE4BC" stop-opacity="0.82"/>
<stop offset="1" stop-color="#5DE4BC"/>
</radialGradient>
<radialGradient id="paint35_radial_48413_642" cx="0" cy="0" r="1" gradientUnits="userSpaceOnUse" gradientTransform="translate(261.324 591.751) rotate(137.695) scale(102.811 94.345)">
<stop stop-color="#3F88B1" stop-opacity="0"/>
<stop offset="0.572917" stop-color="#3F88B1" stop-opacity="0"/>
<stop offset="0.663509" stop-color="#3F88B1" stop-opacity="0.08"/>
<stop offset="0.801762" stop-color="#3F88B1" stop-opacity="0.36"/>
<stop offset="0.8839" stop-color="#3F88B1" stop-opacity="0.59"/>
<stop offset="1" stop-color="#3F88B1" stop-opacity="0.95"/>
</radialGradient>
<radialGradient id="paint36_radial_48413_642" cx="0" cy="0" r="1" gradientUnits="userSpaceOnUse" gradientTransform="translate(249.512 602.378) scale(87.5963)">
<stop stop-color="#3F88B1" stop-opacity="0"/>
<stop offset="0.858643" stop-color="#3F88B1" stop-opacity="0"/>
<stop offset="0.902923" stop-color="#3F88B1" stop-opacity="0.106122"/>
<stop offset="0.942095" stop-color="#3F88B1" stop-opacity="0.26"/>
<stop offset="1" stop-color="#3F88B1" stop-opacity="0.77"/>
</radialGradient>
<linearGradient id="paint37_linear_48413_642" x1="409.061" y1="687.877" x2="488.03" y2="879.297" gradientUnits="userSpaceOnUse">
<stop stop-color="#49B1F1"/>
<stop offset="1" stop-color="#4982FE"/>
</linearGradient>
<radialGradient id="paint38_radial_48413_642" cx="0" cy="0" r="1" gradientUnits="userSpaceOnUse" gradientTransform="translate(442.283 800.164) rotate(-38.4074) scale(114.805 91.4105)">
<stop stop-color="#5DC0F1" stop-opacity="0"/>
<stop offset="0.496795" stop-color="#5DC0F1" stop-opacity="0"/>
<stop offset="0.662646" stop-color="#5DC0F1" stop-opacity="0.21"/>
<stop offset="0.86595" stop-color="#5DC0F1" stop-opacity="0.82"/>
<stop offset="1" stop-color="#5DC0F1"/>
</radialGradient>
<radialGradient id="paint39_radial_48413_642" cx="0" cy="0" r="1" gradientUnits="userSpaceOnUse" gradientTransform="translate(471.377 763.613) rotate(137.695) scale(102.811 94.345)">
<stop stop-color="#4466EA" stop-opacity="0"/>
<stop offset="0.541733" stop-color="#4466EA" stop-opacity="0"/>
<stop offset="0.664584" stop-color="#4466EA" stop-opacity="0.13"/>
<stop offset="0.801762" stop-color="#4466EA" stop-opacity="0.42"/>
<stop offset="0.8839" stop-color="#4466EA" stop-opacity="0.64"/>
<stop offset="1" stop-color="#4466EA" stop-opacity="0.92"/>
</radialGradient>
<radialGradient id="paint40_radial_48413_642" cx="0" cy="0" r="1" gradientUnits="userSpaceOnUse" gradientTransform="translate(459.564 774.239) scale(87.5963)">
<stop stop-color="#4466EA" stop-opacity="0"/>
<stop offset="0.858643" stop-color="#4466EA" stop-opacity="0"/>
<stop offset="0.902923" stop-color="#4466EA" stop-opacity="0.106122"/>
<stop offset="0.942095" stop-color="#4466EA" stop-opacity="0.26"/>
<stop offset="1" stop-color="#4466EA" stop-opacity="0.77"/>
</radialGradient>
</defs>
</svg>
