<svg width="1081" height="1052" viewBox="0 0 1081 1052" fill="none" xmlns="http://www.w3.org/2000/svg">
<path d="M1041.11 578.954L921.242 587.2C889.063 589.557 875.789 628.826 900.325 649.247L992.439 724.644C1012.55 741.137 1043.12 732.498 1051.17 708.151L1078.52 626.077C1086.97 601.73 1067.26 576.99 1041.11 578.954Z" fill="#F6C327"/>
<path d="M1041.11 578.954L921.242 587.2C889.063 589.557 875.789 628.826 900.325 649.247L992.439 724.644C1012.55 741.137 1043.12 732.498 1051.17 708.151L1078.52 626.077C1086.97 601.73 1067.26 576.99 1041.11 578.954Z" fill="url(#paint0_radial_5822_95)"/>
<path d="M1041.11 578.954L921.242 587.2C889.063 589.557 875.789 628.826 900.325 649.247L992.439 724.644C1012.55 741.137 1043.12 732.498 1051.17 708.151L1078.52 626.077C1086.97 601.73 1067.26 576.99 1041.11 578.954Z" fill="url(#paint1_linear_5822_95)"/>
<path d="M1041.11 578.954L921.242 587.2C889.063 589.557 875.789 628.826 900.325 649.247L992.439 724.644C1012.55 741.137 1043.12 732.498 1051.17 708.151L1078.52 626.077C1086.97 601.73 1067.26 576.99 1041.11 578.954Z" fill="url(#paint2_linear_5822_95)"/>
<path d="M762.264 26.9445L734.492 138.802C726.778 168.887 759.949 193.187 786.178 176.602L884.15 115.659C905.364 102.545 906.521 71.6873 886.078 57.0301L817.421 7.27296C796.978 -7.7699 768.435 2.64447 762.264 26.9445Z" fill="#F4C226"/>
<path d="M762.264 26.9445L734.492 138.802C726.778 168.887 759.949 193.187 786.178 176.602L884.15 115.659C905.364 102.545 906.521 71.6873 886.078 57.0301L817.421 7.27296C796.978 -7.7699 768.435 2.64447 762.264 26.9445Z" fill="url(#paint3_linear_5822_95)"/>
<path d="M762.264 26.9445L734.492 138.802C726.778 168.887 759.949 193.187 786.178 176.602L884.15 115.659C905.364 102.545 906.521 71.6873 886.078 57.0301L817.421 7.27296C796.978 -7.7699 768.435 2.64447 762.264 26.9445Z" fill="url(#paint4_linear_5822_95)"/>
<path d="M762.264 26.9445L734.492 138.802C726.778 168.887 759.949 193.187 786.178 176.602L884.15 115.659C905.364 102.545 906.521 71.6873 886.078 57.0301L817.421 7.27296C796.978 -7.7699 768.435 2.64447 762.264 26.9445Z" fill="url(#paint5_linear_5822_95)"/>
<path d="M171.393 115.782L268.979 176.725C295.207 193.311 328.378 169.396 321.05 138.925L293.279 27.0675C287.107 2.7675 258.564 -7.64665 238.121 7.01049L169.464 56.7677C149.021 72.1962 150.179 102.668 171.393 115.782Z" fill="#EABA25"/>
<path d="M171.393 115.782L268.979 176.725C295.207 193.311 328.378 169.396 321.05 138.925L293.279 27.0675C287.107 2.7675 258.564 -7.64665 238.121 7.01049L169.464 56.7677C149.021 72.1962 150.179 102.668 171.393 115.782Z" fill="url(#paint6_linear_5822_95)"/>
<path d="M171.393 115.782L268.979 176.725C295.207 193.311 328.378 169.396 321.05 138.925L293.279 27.0675C287.107 2.7675 258.564 -7.64665 238.121 7.01049L169.464 56.7677C149.021 72.1962 150.179 102.668 171.393 115.782Z" fill="url(#paint7_linear_5822_95)"/>
<path d="M171.393 115.782L268.979 176.725C295.207 193.311 328.378 169.396 321.05 138.925L293.279 27.0675C287.107 2.7675 258.564 -7.64665 238.121 7.01049L169.464 56.7677C149.021 72.1962 150.179 102.668 171.393 115.782Z" fill="url(#paint8_linear_5822_95)"/>
<path d="M84.788 722.052L173.117 647.995C197.031 627.938 184.302 588.98 153.445 587.052L38.5021 578.952C13.4306 577.023 -5.46916 601.323 2.24512 625.238L28.4737 705.852C36.188 729.766 65.888 738.252 84.788 722.052Z" fill="#DFAD26"/>
<path d="M84.788 722.052L173.117 647.995C197.031 627.938 184.302 588.98 153.445 587.052L38.5021 578.952C13.4306 577.023 -5.46916 601.323 2.24512 625.238L28.4737 705.852C36.188 729.766 65.888 738.252 84.788 722.052Z" fill="url(#paint9_linear_5822_95)"/>
<path d="M84.788 722.052L173.117 647.995C197.031 627.938 184.302 588.98 153.445 587.052L38.5021 578.952C13.4306 577.023 -5.46916 601.323 2.24512 625.238L28.4737 705.852C36.188 729.766 65.888 738.252 84.788 722.052Z" fill="url(#paint10_linear_5822_95)"/>
<path d="M609.745 1003.31L566.545 896.465C554.974 867.536 514.088 867.536 502.517 896.465L459.317 1003.31C450.06 1026.45 467.031 1051.91 492.103 1051.91H576.96C602.031 1051.52 619.002 1026.45 609.745 1003.31Z" fill="#E3B028"/>
<path d="M609.745 1003.31L566.545 896.465C554.974 867.536 514.088 867.536 502.517 896.465L459.317 1003.31C450.06 1026.45 467.031 1051.91 492.103 1051.91H576.96C602.031 1051.52 619.002 1026.45 609.745 1003.31Z" fill="url(#paint11_linear_5822_95)"/>
<path d="M609.745 1003.31L566.545 896.465C554.974 867.536 514.088 867.536 502.517 896.465L459.317 1003.31C450.06 1026.45 467.031 1051.91 492.103 1051.91H576.96C602.031 1051.52 619.002 1026.45 609.745 1003.31Z" fill="url(#paint12_linear_5822_95)"/>
<path d="M609.745 1003.31L566.545 896.465C554.974 867.536 514.088 867.536 502.517 896.465L459.317 1003.31C450.06 1026.45 467.031 1051.91 492.103 1051.91H576.96C602.031 1051.52 619.002 1026.45 609.745 1003.31Z" fill="url(#paint13_linear_5822_95)"/>
<path d="M600.846 51.3493L667.452 194.822C680.012 221.604 704.752 240.351 733.678 244.559L890.107 268.663C960.9 279.375 989.445 366.224 939.967 417.492L820.837 540.305C801.426 560.2 792.672 588.511 797.239 616.058L824.643 784.783C836.442 857.475 759.559 911.804 695.237 876.223L563.927 803.147C537.285 788.226 505.314 788.226 478.671 803.147L347.362 876.223C283.039 911.804 206.157 857.475 217.956 784.783L245.359 616.058C249.926 588.511 241.172 560.2 221.762 540.305L102.631 417.492C52.7719 365.842 81.6982 279.375 152.491 268.663L308.92 244.559C337.846 239.968 362.586 221.221 375.146 194.822L441.752 51.3493C473.343 -16.7525 569.255 -16.7525 600.846 51.3493Z" fill="url(#paint14_radial_5822_95)"/>
<path d="M600.846 51.3493L667.452 194.822C680.012 221.604 704.752 240.351 733.678 244.559L890.107 268.663C960.9 279.375 989.445 366.224 939.967 417.492L820.837 540.305C801.426 560.2 792.672 588.511 797.239 616.058L824.643 784.783C836.442 857.475 759.559 911.804 695.237 876.223L563.927 803.147C537.285 788.226 505.314 788.226 478.671 803.147L347.362 876.223C283.039 911.804 206.157 857.475 217.956 784.783L245.359 616.058C249.926 588.511 241.172 560.2 221.762 540.305L102.631 417.492C52.7719 365.842 81.6982 279.375 152.491 268.663L308.92 244.559C337.846 239.968 362.586 221.221 375.146 194.822L441.752 51.3493C473.343 -16.7525 569.255 -16.7525 600.846 51.3493Z" fill="url(#paint15_radial_5822_95)"/>
<path d="M600.846 51.3493L667.452 194.822C680.012 221.604 704.752 240.351 733.678 244.559L890.107 268.663C960.9 279.375 989.445 366.224 939.967 417.492L820.837 540.305C801.426 560.2 792.672 588.511 797.239 616.058L824.643 784.783C836.442 857.475 759.559 911.804 695.237 876.223L563.927 803.147C537.285 788.226 505.314 788.226 478.671 803.147L347.362 876.223C283.039 911.804 206.157 857.475 217.956 784.783L245.359 616.058C249.926 588.511 241.172 560.2 221.762 540.305L102.631 417.492C52.7719 365.842 81.6982 279.375 152.491 268.663L308.92 244.559C337.846 239.968 362.586 221.221 375.146 194.822L441.752 51.3493C473.343 -16.7525 569.255 -16.7525 600.846 51.3493Z" fill="url(#paint16_radial_5822_95)"/>
<path d="M600.846 51.3493L667.452 194.822C680.012 221.604 704.752 240.351 733.678 244.559L890.107 268.663C960.9 279.375 989.445 366.224 939.967 417.492L820.837 540.305C801.426 560.2 792.672 588.511 797.239 616.058L824.643 784.783C836.442 857.475 759.559 911.804 695.237 876.223L563.927 803.147C537.285 788.226 505.314 788.226 478.671 803.147L347.362 876.223C283.039 911.804 206.157 857.475 217.956 784.783L245.359 616.058C249.926 588.511 241.172 560.2 221.762 540.305L102.631 417.492C52.7719 365.842 81.6982 279.375 152.491 268.663L308.92 244.559C337.846 239.968 362.586 221.221 375.146 194.822L441.752 51.3493C473.343 -16.7525 569.255 -16.7525 600.846 51.3493Z" fill="url(#paint17_radial_5822_95)"/>
<path d="M600.846 51.3493L667.452 194.822C680.012 221.604 704.752 240.351 733.678 244.559L890.107 268.663C960.9 279.375 989.445 366.224 939.967 417.492L820.837 540.305C801.426 560.2 792.672 588.511 797.239 616.058L824.643 784.783C836.442 857.475 759.559 911.804 695.237 876.223L563.927 803.147C537.285 788.226 505.314 788.226 478.671 803.147L347.362 876.223C283.039 911.804 206.157 857.475 217.956 784.783L245.359 616.058C249.926 588.511 241.172 560.2 221.762 540.305L102.631 417.492C52.7719 365.842 81.6982 279.375 152.491 268.663L308.92 244.559C337.846 239.968 362.586 221.221 375.146 194.822L441.752 51.3493C473.343 -16.7525 569.255 -16.7525 600.846 51.3493Z" fill="url(#paint18_radial_5822_95)"/>
<path d="M600.846 51.3493L667.452 194.822C680.012 221.604 704.752 240.351 733.678 244.559L890.107 268.663C960.9 279.375 989.445 366.224 939.967 417.492L820.837 540.305C801.426 560.2 792.672 588.511 797.239 616.058L824.643 784.783C836.442 857.475 759.559 911.804 695.237 876.223L563.927 803.147C537.285 788.226 505.314 788.226 478.671 803.147L347.362 876.223C283.039 911.804 206.157 857.475 217.956 784.783L245.359 616.058C249.926 588.511 241.172 560.2 221.762 540.305L102.631 417.492C52.7719 365.842 81.6982 279.375 152.491 268.663L308.92 244.559C337.846 239.968 362.586 221.221 375.146 194.822L441.752 51.3493C473.343 -16.7525 569.255 -16.7525 600.846 51.3493Z" fill="url(#paint19_radial_5822_95)"/>
<path d="M600.846 51.3493L667.452 194.822C680.012 221.604 704.752 240.351 733.678 244.559L890.107 268.663C960.9 279.375 989.445 366.224 939.967 417.492L820.837 540.305C801.426 560.2 792.672 588.511 797.239 616.058L824.643 784.783C836.442 857.475 759.559 911.804 695.237 876.223L563.927 803.147C537.285 788.226 505.314 788.226 478.671 803.147L347.362 876.223C283.039 911.804 206.157 857.475 217.956 784.783L245.359 616.058C249.926 588.511 241.172 560.2 221.762 540.305L102.631 417.492C52.7719 365.842 81.6982 279.375 152.491 268.663L308.92 244.559C337.846 239.968 362.586 221.221 375.146 194.822L441.752 51.3493C473.343 -16.7525 569.255 -16.7525 600.846 51.3493Z" fill="url(#paint20_radial_5822_95)"/>
<path d="M600.846 51.3493L667.452 194.822C680.012 221.604 704.752 240.351 733.678 244.559L890.107 268.663C960.9 279.375 989.445 366.224 939.967 417.492L820.837 540.305C801.426 560.2 792.672 588.511 797.239 616.058L824.643 784.783C836.442 857.475 759.559 911.804 695.237 876.223L563.927 803.147C537.285 788.226 505.314 788.226 478.671 803.147L347.362 876.223C283.039 911.804 206.157 857.475 217.956 784.783L245.359 616.058C249.926 588.511 241.172 560.2 221.762 540.305L102.631 417.492C52.7719 365.842 81.6982 279.375 152.491 268.663L308.92 244.559C337.846 239.968 362.586 221.221 375.146 194.822L441.752 51.3493C473.343 -16.7525 569.255 -16.7525 600.846 51.3493Z" fill="url(#paint21_radial_5822_95)"/>
<path d="M600.846 51.3493L667.452 194.822C680.012 221.604 704.752 240.351 733.678 244.559L890.107 268.663C960.9 279.375 989.445 366.224 939.967 417.492L820.837 540.305C801.426 560.2 792.672 588.511 797.239 616.058L824.643 784.783C836.442 857.475 759.559 911.804 695.237 876.223L563.927 803.147C537.285 788.226 505.314 788.226 478.671 803.147L347.362 876.223C283.039 911.804 206.157 857.475 217.956 784.783L245.359 616.058C249.926 588.511 241.172 560.2 221.762 540.305L102.631 417.492C52.7719 365.842 81.6982 279.375 152.491 268.663L308.92 244.559C337.846 239.968 362.586 221.221 375.146 194.822L441.752 51.3493C473.343 -16.7525 569.255 -16.7525 600.846 51.3493Z" fill="url(#paint22_radial_5822_95)"/>
<path d="M600.846 51.3493L667.452 194.822C680.012 221.604 704.752 240.351 733.678 244.559L890.107 268.663C960.9 279.375 989.445 366.224 939.967 417.492L820.837 540.305C801.426 560.2 792.672 588.511 797.239 616.058L824.643 784.783C836.442 857.475 759.559 911.804 695.237 876.223L563.927 803.147C537.285 788.226 505.314 788.226 478.671 803.147L347.362 876.223C283.039 911.804 206.157 857.475 217.956 784.783L245.359 616.058C249.926 588.511 241.172 560.2 221.762 540.305L102.631 417.492C52.7719 365.842 81.6982 279.375 152.491 268.663L308.92 244.559C337.846 239.968 362.586 221.221 375.146 194.822L441.752 51.3493C473.343 -16.7525 569.255 -16.7525 600.846 51.3493Z" fill="url(#paint23_radial_5822_95)"/>
<path d="M600.846 51.3493L667.452 194.822C680.012 221.604 704.752 240.351 733.678 244.559L890.107 268.663C960.9 279.375 989.445 366.224 939.967 417.492L820.837 540.305C801.426 560.2 792.672 588.511 797.239 616.058L824.643 784.783C836.442 857.475 759.559 911.804 695.237 876.223L563.927 803.147C537.285 788.226 505.314 788.226 478.671 803.147L347.362 876.223C283.039 911.804 206.157 857.475 217.956 784.783L245.359 616.058C249.926 588.511 241.172 560.2 221.762 540.305L102.631 417.492C52.7719 365.842 81.6982 279.375 152.491 268.663L308.92 244.559C337.846 239.968 362.586 221.221 375.146 194.822L441.752 51.3493C473.343 -16.7525 569.255 -16.7525 600.846 51.3493Z" fill="url(#paint24_radial_5822_95)"/>
<path d="M600.846 51.3493L667.452 194.822C680.012 221.604 704.752 240.351 733.678 244.559L890.107 268.663C960.9 279.375 989.445 366.224 939.967 417.492L820.837 540.305C801.426 560.2 792.672 588.511 797.239 616.058L824.643 784.783C836.442 857.475 759.559 911.804 695.237 876.223L563.927 803.147C537.285 788.226 505.314 788.226 478.671 803.147L347.362 876.223C283.039 911.804 206.157 857.475 217.956 784.783L245.359 616.058C249.926 588.511 241.172 560.2 221.762 540.305L102.631 417.492C52.7719 365.842 81.6982 279.375 152.491 268.663L308.92 244.559C337.846 239.968 362.586 221.221 375.146 194.822L441.752 51.3493C473.343 -16.7525 569.255 -16.7525 600.846 51.3493Z" fill="url(#paint25_radial_5822_95)"/>
<path d="M600.846 51.3493L667.452 194.822C680.012 221.604 704.752 240.351 733.678 244.559L890.107 268.663C960.9 279.375 989.445 366.224 939.967 417.492L820.837 540.305C801.426 560.2 792.672 588.511 797.239 616.058L824.643 784.783C836.442 857.475 759.559 911.804 695.237 876.223L563.927 803.147C537.285 788.226 505.314 788.226 478.671 803.147L347.362 876.223C283.039 911.804 206.157 857.475 217.956 784.783L245.359 616.058C249.926 588.511 241.172 560.2 221.762 540.305L102.631 417.492C52.7719 365.842 81.6982 279.375 152.491 268.663L308.92 244.559C337.846 239.968 362.586 221.221 375.146 194.822L441.752 51.3493C473.343 -16.7525 569.255 -16.7525 600.846 51.3493Z" fill="url(#paint26_radial_5822_95)"/>
<path d="M600.846 51.3493L667.452 194.822C680.012 221.604 704.752 240.351 733.678 244.559L890.107 268.663C960.9 279.375 989.445 366.224 939.967 417.492L820.837 540.305C801.426 560.2 792.672 588.511 797.239 616.058L824.643 784.783C836.442 857.475 759.559 911.804 695.237 876.223L563.927 803.147C537.285 788.226 505.314 788.226 478.671 803.147L347.362 876.223C283.039 911.804 206.157 857.475 217.956 784.783L245.359 616.058C249.926 588.511 241.172 560.2 221.762 540.305L102.631 417.492C52.7719 365.842 81.6982 279.375 152.491 268.663L308.92 244.559C337.846 239.968 362.586 221.221 375.146 194.822L441.752 51.3493C473.343 -16.7525 569.255 -16.7525 600.846 51.3493Z" fill="url(#paint27_radial_5822_95)"/>
<path d="M600.846 51.3493L667.452 194.822C680.012 221.604 704.752 240.351 733.678 244.559L890.107 268.663C960.9 279.375 989.445 366.224 939.967 417.492L820.837 540.305C801.426 560.2 792.672 588.511 797.239 616.058L824.643 784.783C836.442 857.475 759.559 911.804 695.237 876.223L563.927 803.147C537.285 788.226 505.314 788.226 478.671 803.147L347.362 876.223C283.039 911.804 206.157 857.475 217.956 784.783L245.359 616.058C249.926 588.511 241.172 560.2 221.762 540.305L102.631 417.492C52.7719 365.842 81.6982 279.375 152.491 268.663L308.92 244.559C337.846 239.968 362.586 221.221 375.146 194.822L441.752 51.3493C473.343 -16.7525 569.255 -16.7525 600.846 51.3493Z" fill="url(#paint28_radial_5822_95)"/>
<path d="M600.846 51.3493L667.452 194.822C680.012 221.604 704.752 240.351 733.678 244.559L890.107 268.663C960.9 279.375 989.445 366.224 939.967 417.492L820.837 540.305C801.426 560.2 792.672 588.511 797.239 616.058L824.643 784.783C836.442 857.475 759.559 911.804 695.237 876.223L563.927 803.147C537.285 788.226 505.314 788.226 478.671 803.147L347.362 876.223C283.039 911.804 206.157 857.475 217.956 784.783L245.359 616.058C249.926 588.511 241.172 560.2 221.762 540.305L102.631 417.492C52.7719 365.842 81.6982 279.375 152.491 268.663L308.92 244.559C337.846 239.968 362.586 221.221 375.146 194.822L441.752 51.3493C473.343 -16.7525 569.255 -16.7525 600.846 51.3493Z" fill="url(#paint29_radial_5822_95)"/>
<path d="M600.846 51.3493L667.452 194.822C680.012 221.604 704.752 240.351 733.678 244.559L890.107 268.663C960.9 279.375 989.445 366.224 939.967 417.492L820.837 540.305C801.426 560.2 792.672 588.511 797.239 616.058L824.643 784.783C836.442 857.475 759.559 911.804 695.237 876.223L563.927 803.147C537.285 788.226 505.314 788.226 478.671 803.147L347.362 876.223C283.039 911.804 206.157 857.475 217.956 784.783L245.359 616.058C249.926 588.511 241.172 560.2 221.762 540.305L102.631 417.492C52.7719 365.842 81.6982 279.375 152.491 268.663L308.92 244.559C337.846 239.968 362.586 221.221 375.146 194.822L441.752 51.3493C473.343 -16.7525 569.255 -16.7525 600.846 51.3493Z" fill="url(#paint30_radial_5822_95)"/>
<path d="M600.846 51.3493L667.452 194.822C680.012 221.604 704.752 240.351 733.678 244.559L890.107 268.663C960.9 279.375 989.445 366.224 939.967 417.492L820.837 540.305C801.426 560.2 792.672 588.511 797.239 616.058L824.643 784.783C836.442 857.475 759.559 911.804 695.237 876.223L563.927 803.147C537.285 788.226 505.314 788.226 478.671 803.147L347.362 876.223C283.039 911.804 206.157 857.475 217.956 784.783L245.359 616.058C249.926 588.511 241.172 560.2 221.762 540.305L102.631 417.492C52.7719 365.842 81.6982 279.375 152.491 268.663L308.92 244.559C337.846 239.968 362.586 221.221 375.146 194.822L441.752 51.3493C473.343 -16.7525 569.255 -16.7525 600.846 51.3493Z" fill="url(#paint31_radial_5822_95)"/>
<path d="M600.846 51.3493L667.452 194.822C680.012 221.604 704.752 240.351 733.678 244.559L890.107 268.663C960.9 279.375 989.445 366.224 939.967 417.492L820.837 540.305C801.426 560.2 792.672 588.511 797.239 616.058L824.643 784.783C836.442 857.475 759.559 911.804 695.237 876.223L563.927 803.147C537.285 788.226 505.314 788.226 478.671 803.147L347.362 876.223C283.039 911.804 206.157 857.475 217.956 784.783L245.359 616.058C249.926 588.511 241.172 560.2 221.762 540.305L102.631 417.492C52.7719 365.842 81.6982 279.375 152.491 268.663L308.92 244.559C337.846 239.968 362.586 221.221 375.146 194.822L441.752 51.3493C473.343 -16.7525 569.255 -16.7525 600.846 51.3493Z" fill="url(#paint32_radial_5822_95)"/>
<path d="M600.846 51.3493L667.452 194.822C680.012 221.604 704.752 240.351 733.678 244.559L890.107 268.663C960.9 279.375 989.445 366.224 939.967 417.492L820.837 540.305C801.426 560.2 792.672 588.511 797.239 616.058L824.643 784.783C836.442 857.475 759.559 911.804 695.237 876.223L563.927 803.147C537.285 788.226 505.314 788.226 478.671 803.147L347.362 876.223C283.039 911.804 206.157 857.475 217.956 784.783L245.359 616.058C249.926 588.511 241.172 560.2 221.762 540.305L102.631 417.492C52.7719 365.842 81.6982 279.375 152.491 268.663L308.92 244.559C337.846 239.968 362.586 221.221 375.146 194.822L441.752 51.3493C473.343 -16.7525 569.255 -16.7525 600.846 51.3493Z" fill="url(#paint33_radial_5822_95)"/>
<defs>
<radialGradient id="paint0_radial_5822_95" cx="0" cy="0" r="1" gradientUnits="userSpaceOnUse" gradientTransform="translate(941.884 662.014) rotate(-27.3239) scale(162.808 225.829)">
<stop offset="0.746579" stop-color="#FFF055" stop-opacity="0"/>
<stop offset="1" stop-color="#FFF055"/>
</radialGradient>
<linearGradient id="paint1_linear_5822_95" x1="984.072" y1="564.662" x2="1007.05" y2="712.374" gradientUnits="userSpaceOnUse">
<stop stop-color="#FFF659"/>
<stop offset="0.324993" stop-color="#FFF659" stop-opacity="0"/>
</linearGradient>
<linearGradient id="paint2_linear_5822_95" x1="964.786" y1="699.662" x2="1111.3" y2="534.052" gradientUnits="userSpaceOnUse">
<stop stop-color="#E6B54A"/>
<stop offset="0.0892553" stop-color="#E6B54A" stop-opacity="0"/>
</linearGradient>
<linearGradient id="paint3_linear_5822_95" x1="876.794" y1="18.3533" x2="850.277" y2="58.1301" gradientUnits="userSpaceOnUse">
<stop stop-color="#FFF659"/>
<stop offset="1" stop-color="#FFF659" stop-opacity="0"/>
</linearGradient>
<linearGradient id="paint4_linear_5822_95" x1="849.071" y1="24.662" x2="810.5" y2="82.5191" gradientUnits="userSpaceOnUse">
<stop stop-color="#FFF659"/>
<stop offset="0.557692" stop-color="#FFF659" stop-opacity="0"/>
</linearGradient>
<linearGradient id="paint5_linear_5822_95" x1="752.643" y1="82.5192" x2="868.357" y2="121.091" gradientUnits="userSpaceOnUse">
<stop stop-color="#EAB72B"/>
<stop offset="0.170312" stop-color="#EAB72B" stop-opacity="0"/>
</linearGradient>
<linearGradient id="paint6_linear_5822_95" x1="309.071" y1="63.2334" x2="231.854" y2="82.4855" gradientUnits="userSpaceOnUse">
<stop stop-color="#FFF659"/>
<stop offset="0.363812" stop-color="#FFF659" stop-opacity="0"/>
</linearGradient>
<linearGradient id="paint7_linear_5822_95" x1="193.357" y1="24.662" x2="231.798" y2="82.6503" gradientUnits="userSpaceOnUse">
<stop stop-color="#FFF659"/>
<stop offset="0.363812" stop-color="#FFF659" stop-opacity="0"/>
</linearGradient>
<linearGradient id="paint8_linear_5822_95" x1="193.357" y1="140.376" x2="251.125" y2="43.8942" gradientUnits="userSpaceOnUse">
<stop offset="0.071232" stop-color="#E4A829"/>
<stop offset="0.20374" stop-color="#E4A829" stop-opacity="0"/>
</linearGradient>
<linearGradient id="paint9_linear_5822_95" x1="93.0306" y1="578.844" x2="93.0306" y2="617.416" gradientUnits="userSpaceOnUse">
<stop stop-color="#DEAE2C"/>
<stop offset="1" stop-color="#DEAE2C" stop-opacity="0"/>
</linearGradient>
<linearGradient id="paint10_linear_5822_95" x1="135.5" y1="699.662" x2="0.499983" y2="526.09" gradientUnits="userSpaceOnUse">
<stop offset="0.0608173" stop-color="#D89C40"/>
<stop offset="0.174519" stop-color="#D89C40" stop-opacity="0"/>
</linearGradient>
<linearGradient id="paint11_linear_5822_95" x1="603.179" y1="963.338" x2="560.991" y2="981.431" gradientUnits="userSpaceOnUse">
<stop stop-color="#F9C83C"/>
<stop offset="1" stop-color="#F9C83C" stop-opacity="0"/>
</linearGradient>
<linearGradient id="paint12_linear_5822_95" x1="482.643" y1="950.376" x2="752.643" y2="1027.52" gradientUnits="userSpaceOnUse">
<stop stop-color="#D89C40"/>
<stop offset="0.0704617" stop-color="#D89C40" stop-opacity="0"/>
</linearGradient>
<linearGradient id="paint13_linear_5822_95" x1="521.215" y1="1066.09" x2="521.215" y2="873.233" gradientUnits="userSpaceOnUse">
<stop offset="0.09375" stop-color="#D89C40"/>
<stop offset="0.18125" stop-color="#D89C40" stop-opacity="0"/>
</linearGradient>
<radialGradient id="paint14_radial_5822_95" cx="0" cy="0" r="1" gradientTransform="matrix(-432.435 465.183 -462.531 -425.548 791.381 221.896)" gradientUnits="userSpaceOnUse">
<stop stop-color="#FAC632"/>
<stop offset="1" stop-color="#F7C632"/>
</radialGradient>
<radialGradient id="paint15_radial_5822_95" cx="0" cy="0" r="1" gradientUnits="userSpaceOnUse" gradientTransform="translate(521.215 443.844) rotate(90) scale(443.571)">
<stop stop-color="#DDBA38"/>
<stop offset="1" stop-color="#DDBA38" stop-opacity="0"/>
</radialGradient>
<radialGradient id="paint16_radial_5822_95" cx="0" cy="0" r="1" gradientTransform="matrix(111.2 -63.6047 73.685 129.075 948.903 286.494)" gradientUnits="userSpaceOnUse">
<stop offset="0.0027979" stop-color="#FFF249"/>
<stop offset="0.686538" stop-color="#FFF249" stop-opacity="0"/>
</radialGradient>
<radialGradient id="paint17_radial_5822_95" cx="0" cy="0" r="1" gradientTransform="matrix(79.4283 79.5059 -193.39 193.578 885.361 461.407)" gradientUnits="userSpaceOnUse">
<stop offset="0.125" stop-color="#E5B23C"/>
<stop offset="0.95" stop-color="#E5B23C" stop-opacity="0"/>
</radialGradient>
<radialGradient id="paint18_radial_5822_95" cx="0" cy="0" r="1" gradientTransform="matrix(46.9556 -76.6866 76.6866 47.0474 294.031 916.541)" gradientUnits="userSpaceOnUse">
<stop stop-color="#D69E1F"/>
<stop offset="1" stop-color="#D69E1F" stop-opacity="0"/>
</radialGradient>
<radialGradient id="paint19_radial_5822_95" cx="0" cy="0" r="1" gradientTransform="matrix(-61.7837 34.6326 -45.4935 -81.3179 998.366 307.996)" gradientUnits="userSpaceOnUse">
<stop stop-color="#FFF246"/>
<stop offset="1" stop-color="#FFF246" stop-opacity="0"/>
</radialGradient>
<radialGradient id="paint20_radial_5822_95" cx="0" cy="0" r="1" gradientTransform="matrix(79.4283 31.8024 -15.8857 39.753 837.704 874.838)" gradientUnits="userSpaceOnUse">
<stop stop-color="#FFF246"/>
<stop offset="1" stop-color="#FFF246" stop-opacity="0"/>
</radialGradient>
<radialGradient id="paint21_radial_5822_95" cx="0" cy="0" r="1" gradientTransform="matrix(206.514 -206.715 206.514 206.715 710.618 222.889)" gradientUnits="userSpaceOnUse">
<stop offset="0.113127" stop-color="#FFF249"/>
<stop offset="0.298269" stop-color="#FFF249" stop-opacity="0"/>
</radialGradient>
<radialGradient id="paint22_radial_5822_95" cx="0" cy="0" r="1" gradientTransform="matrix(190.628 -63.6047 132.545 398.024 821.818 668.122)" gradientUnits="userSpaceOnUse">
<stop offset="0.0592265" stop-color="#FFF249"/>
<stop offset="0.39519" stop-color="#FFF249" stop-opacity="0"/>
</radialGradient>
<radialGradient id="paint23_radial_5822_95" cx="0" cy="0" r="1" gradientTransform="matrix(254.171 15.9012 -4.28501 68.6271 837.704 270.593)" gradientUnits="userSpaceOnUse">
<stop offset="0.26571" stop-color="#FFF249"/>
<stop offset="0.738695" stop-color="#FFF249" stop-opacity="0"/>
</radialGradient>
<radialGradient id="paint24_radial_5822_95" cx="0" cy="0" r="1" gradientTransform="matrix(79.4283 286.221 -77.1302 21.446 615.304 63.8777)" gradientUnits="userSpaceOnUse">
<stop offset="0.26571" stop-color="#FFF249"/>
<stop offset="0.738695" stop-color="#FFF249" stop-opacity="0"/>
</radialGradient>
<radialGradient id="paint25_radial_5822_95" cx="0" cy="0" r="1" gradientTransform="matrix(-47.657 -318.023 85.7002 -12.8676 837.704 827.134)" gradientUnits="userSpaceOnUse">
<stop offset="0.26571" stop-color="#FFF249"/>
<stop offset="0.738695" stop-color="#FFF249" stop-opacity="0"/>
</radialGradient>
<radialGradient id="paint26_radial_5822_95" cx="0" cy="0" r="1" gradientTransform="matrix(19.7708 69.2654 -230.931 66.0448 235.955 257.283)" gradientUnits="userSpaceOnUse">
<stop stop-color="#F5DC40"/>
<stop offset="1" stop-color="#F5DC40" stop-opacity="0"/>
</radialGradient>
<radialGradient id="paint27_radial_5822_95" cx="0" cy="0" r="1" gradientTransform="matrix(120.006 34.6327 -34.6327 120.24 77.6431 303.048)" gradientUnits="userSpaceOnUse">
<stop stop-color="#D69F20"/>
<stop offset="1" stop-color="#D69F20" stop-opacity="0"/>
</radialGradient>
<radialGradient id="paint28_radial_5822_95" cx="0" cy="0" r="1" gradientTransform="matrix(-154.286 327.857 -109.182 -51.4837 444.072 43.9477)" gradientUnits="userSpaceOnUse">
<stop offset="0.0888889" stop-color="#D79F21"/>
<stop offset="0.738695" stop-color="#D79F21" stop-opacity="0"/>
</radialGradient>
<radialGradient id="paint29_radial_5822_95" cx="0" cy="0" r="1" gradientTransform="matrix(285.942 318.024 -112.889 101.699 91.0776 397.802)" gradientUnits="userSpaceOnUse">
<stop offset="0.121202" stop-color="#D69E20"/>
<stop offset="0.738695" stop-color="#D69E20" stop-opacity="0"/>
</radialGradient>
<radialGradient id="paint30_radial_5822_95" cx="0" cy="0" r="1" gradientTransform="matrix(-47.657 254.419 -104.905 -19.689 234.049 699.925)" gradientUnits="userSpaceOnUse">
<stop offset="0.121202" stop-color="#D69E20"/>
<stop offset="0.738695" stop-color="#D69E20" stop-opacity="0"/>
</radialGradient>
<radialGradient id="paint31_radial_5822_95" cx="0" cy="0" r="1" gradientTransform="matrix(-222.399 111.308 -53.6141 -107.333 408.791 843.035)" gradientUnits="userSpaceOnUse">
<stop offset="0.121202" stop-color="#DCA636"/>
<stop offset="0.738695" stop-color="#DCA636" stop-opacity="0"/>
</radialGradient>
<radialGradient id="paint32_radial_5822_95" cx="0" cy="0" r="1" gradientTransform="matrix(206.514 111.308 -40.4246 75.1476 631.19 827.134)" gradientUnits="userSpaceOnUse">
<stop offset="0.121202" stop-color="#D69E22"/>
<stop offset="0.738695" stop-color="#D69E22" stop-opacity="0"/>
</radialGradient>
<radialGradient id="paint33_radial_5822_95" cx="0" cy="0" r="1" gradientTransform="matrix(-63.5426 111.308 -139.534 -79.8117 218.163 858.936)" gradientUnits="userSpaceOnUse">
<stop offset="0.144231" stop-color="#D69E20"/>
<stop offset="0.738695" stop-color="#D69E20" stop-opacity="0"/>
</radialGradient>
</defs>
</svg>
