<svg width="1081" height="463" viewBox="0 0 1081 463" fill="none" xmlns="http://www.w3.org/2000/svg">
<path d="M0.5 231.5C0.5 103.829 104.368 0.0714264 232.177 0.0714264H848.823C976.632 0.0714264 1080.5 103.829 1080.5 231.5C1080.5 359.171 976.632 462.929 848.823 462.929H232.177C104.368 462.929 0.5 359.171 0.5 231.5Z" fill="url(#paint0_linear_48414_672)"/>
<path d="M0.5 231.5C0.5 103.829 104.368 0.0714264 232.177 0.0714264H848.823C976.632 0.0714264 1080.5 103.829 1080.5 231.5C1080.5 359.171 976.632 462.929 848.823 462.929H232.177C104.368 462.929 0.5 359.171 0.5 231.5Z" fill="url(#paint1_linear_48414_672)"/>
<path d="M0.5 231.5C0.5 103.829 104.368 0.0714264 232.177 0.0714264H848.823C976.632 0.0714264 1080.5 103.829 1080.5 231.5C1080.5 359.171 976.632 462.929 848.823 462.929H232.177C104.368 462.929 0.5 359.171 0.5 231.5Z" fill="url(#paint2_linear_48414_672)"/>
<path d="M0.5 231.5C0.5 103.829 104.368 0.0714264 232.177 0.0714264H848.823C976.632 0.0714264 1080.5 103.829 1080.5 231.5C1080.5 359.171 976.632 462.929 848.823 462.929H232.177C104.368 462.929 0.5 359.171 0.5 231.5Z" fill="url(#paint3_linear_48414_672)"/>
<path d="M0.5 231.5C0.5 103.829 104.368 0.0714264 232.177 0.0714264H848.823C976.632 0.0714264 1080.5 103.829 1080.5 231.5C1080.5 359.171 976.632 462.929 848.823 462.929H232.177C104.368 462.929 0.5 359.171 0.5 231.5Z" fill="url(#paint4_radial_48414_672)"/>
<path d="M0.5 231.5C0.5 103.829 104.368 0.0714264 232.177 0.0714264H848.823C976.632 0.0714264 1080.5 103.829 1080.5 231.5C1080.5 359.171 976.632 462.929 848.823 462.929H232.177C104.368 462.929 0.5 359.171 0.5 231.5Z" fill="url(#paint5_radial_48414_672)"/>
<path d="M0.5 231.5C0.5 103.829 104.368 0.0714264 232.177 0.0714264H848.823C976.632 0.0714264 1080.5 103.829 1080.5 231.5C1080.5 359.171 976.632 462.929 848.823 462.929H232.177C104.368 462.929 0.5 359.171 0.5 231.5Z" fill="url(#paint6_radial_48414_672)"/>
<path d="M849.071 347.214C912.979 347.214 964.786 295.407 964.786 231.5C964.786 167.593 912.979 115.786 849.071 115.786C785.164 115.786 733.357 167.593 733.357 231.5C733.357 295.407 785.164 347.214 849.071 347.214Z" fill="url(#paint7_linear_48414_672)"/>
<path d="M849.071 347.214C912.979 347.214 964.786 295.407 964.786 231.5C964.786 167.593 912.979 115.786 849.071 115.786C785.164 115.786 733.357 167.593 733.357 231.5C733.357 295.407 785.164 347.214 849.071 347.214Z" fill="url(#paint8_radial_48414_672)"/>
<path d="M849.071 347.214C912.979 347.214 964.786 295.407 964.786 231.5C964.786 167.593 912.979 115.786 849.071 115.786C785.164 115.786 733.357 167.593 733.357 231.5C733.357 295.407 785.164 347.214 849.071 347.214Z" fill="url(#paint9_radial_48414_672)"/>
<path d="M540.5 347.214C604.407 347.214 656.214 295.407 656.214 231.5C656.214 167.593 604.407 115.786 540.5 115.786C476.593 115.786 424.786 167.593 424.786 231.5C424.786 295.407 476.593 347.214 540.5 347.214Z" fill="url(#paint10_linear_48414_672)"/>
<path d="M540.5 347.214C604.407 347.214 656.214 295.407 656.214 231.5C656.214 167.593 604.407 115.786 540.5 115.786C476.593 115.786 424.786 167.593 424.786 231.5C424.786 295.407 476.593 347.214 540.5 347.214Z" fill="url(#paint11_radial_48414_672)"/>
<path d="M540.5 347.214C604.407 347.214 656.214 295.407 656.214 231.5C656.214 167.593 604.407 115.786 540.5 115.786C476.593 115.786 424.786 167.593 424.786 231.5C424.786 295.407 476.593 347.214 540.5 347.214Z" fill="url(#paint12_radial_48414_672)"/>
<path d="M231.929 347.214C295.836 347.214 347.643 295.407 347.643 231.5C347.643 167.593 295.836 115.786 231.929 115.786C168.021 115.786 116.214 167.593 116.214 231.5C116.214 295.407 168.021 347.214 231.929 347.214Z" fill="url(#paint13_linear_48414_672)"/>
<path d="M231.929 347.214C295.836 347.214 347.643 295.407 347.643 231.5C347.643 167.593 295.836 115.786 231.929 115.786C168.021 115.786 116.214 167.593 116.214 231.5C116.214 295.407 168.021 347.214 231.929 347.214Z" fill="url(#paint14_radial_48414_672)"/>
<path d="M231.929 347.214C295.836 347.214 347.643 295.407 347.643 231.5C347.643 167.593 295.836 115.786 231.929 115.786C168.021 115.786 116.214 167.593 116.214 231.5C116.214 295.407 168.021 347.214 231.929 347.214Z" fill="url(#paint15_radial_48414_672)"/>
<path d="M887.643 231.5C908.945 231.5 926.214 214.231 926.214 192.929C926.214 171.626 908.945 154.357 887.643 154.357C866.34 154.357 849.071 171.626 849.071 192.929C849.071 214.231 866.34 231.5 887.643 231.5Z" fill="url(#paint16_radial_48414_672)"/>
<path d="M579.071 231.5C600.374 231.5 617.643 214.231 617.643 192.929C617.643 171.626 600.374 154.357 579.071 154.357C557.769 154.357 540.5 171.626 540.5 192.929C540.5 214.231 557.769 231.5 579.071 231.5Z" fill="url(#paint17_radial_48414_672)"/>
<path d="M270.5 231.5C291.802 231.5 309.071 214.231 309.071 192.929C309.071 171.626 291.802 154.357 270.5 154.357C249.197 154.357 231.928 171.626 231.928 192.929C231.928 214.231 249.197 231.5 270.5 231.5Z" fill="url(#paint18_radial_48414_672)"/>
<path d="M91.1011 168.392C85.7028 180.42 95.3496 192.929 108.534 192.929C117.085 192.929 124.554 187.451 128.379 179.804C147.365 141.847 186.605 115.786 231.932 115.786C277.259 115.786 316.499 141.847 335.484 179.804C339.31 187.451 346.779 192.929 355.33 192.929C368.514 192.929 378.16 180.42 372.762 168.392C348.641 114.647 294.658 77.2143 231.932 77.2143C169.205 77.2143 115.222 114.647 91.1011 168.392Z" fill="url(#paint19_linear_48414_672)"/>
<path d="M91.1011 168.392C85.7028 180.42 95.3496 192.929 108.534 192.929C117.085 192.929 124.554 187.451 128.379 179.804C147.365 141.847 186.605 115.786 231.932 115.786C277.259 115.786 316.499 141.847 335.484 179.804C339.31 187.451 346.779 192.929 355.33 192.929C368.514 192.929 378.16 180.42 372.762 168.392C348.641 114.647 294.658 77.2143 231.932 77.2143C169.205 77.2143 115.222 114.647 91.1011 168.392Z" fill="url(#paint20_radial_48414_672)"/>
<path d="M399.672 168.392C394.274 180.42 403.921 192.929 417.105 192.929C425.656 192.929 433.125 187.451 436.95 179.804C455.936 141.847 495.176 115.786 540.503 115.786C585.83 115.786 625.07 141.847 644.056 179.804C647.881 187.451 655.35 192.929 663.901 192.929C677.085 192.929 686.732 180.42 681.334 168.392C657.213 114.647 603.229 77.2143 540.503 77.2143C477.777 77.2143 423.793 114.647 399.672 168.392Z" fill="url(#paint21_linear_48414_672)"/>
<path d="M399.672 168.392C394.274 180.42 403.921 192.929 417.105 192.929C425.656 192.929 433.125 187.451 436.95 179.804C455.936 141.847 495.176 115.786 540.503 115.786C585.83 115.786 625.07 141.847 644.056 179.804C647.881 187.451 655.35 192.929 663.901 192.929C677.085 192.929 686.732 180.42 681.334 168.392C657.213 114.647 603.229 77.2143 540.503 77.2143C477.777 77.2143 423.793 114.647 399.672 168.392Z" fill="url(#paint22_radial_48414_672)"/>
<path d="M708.244 168.392C702.846 180.42 712.492 192.929 725.676 192.929C734.227 192.929 741.697 187.451 745.522 179.804C764.508 141.847 803.747 115.786 849.075 115.786C894.402 115.786 933.642 141.847 952.627 179.804C956.453 187.451 963.922 192.929 972.473 192.929C985.657 192.929 995.303 180.42 989.905 168.392C965.784 114.647 911.801 77.2143 849.075 77.2143C786.348 77.2143 732.365 114.647 708.244 168.392Z" fill="url(#paint23_linear_48414_672)"/>
<path d="M708.244 168.392C702.846 180.42 712.492 192.929 725.676 192.929C734.227 192.929 741.697 187.451 745.522 179.804C764.508 141.847 803.747 115.786 849.075 115.786C894.402 115.786 933.642 141.847 952.627 179.804C956.453 187.451 963.922 192.929 972.473 192.929C985.657 192.929 995.303 180.42 989.905 168.392C965.784 114.647 911.801 77.2143 849.075 77.2143C786.348 77.2143 732.365 114.647 708.244 168.392Z" fill="url(#paint24_radial_48414_672)"/>
<defs>
<linearGradient id="paint0_linear_48414_672" x1="540.5" y1="0.0714264" x2="540.5" y2="380.568" gradientUnits="userSpaceOnUse">
<stop stop-color="#5B4969"/>
<stop offset="1" stop-color="#3B363E"/>
</linearGradient>
<linearGradient id="paint1_linear_48414_672" x1="540.5" y1="0.0714264" x2="540.5" y2="462.929" gradientUnits="userSpaceOnUse">
<stop stop-color="#6C6375"/>
<stop offset="0.0755208" stop-color="#6C6375" stop-opacity="0"/>
<stop offset="0.867188" stop-color="#332141" stop-opacity="0"/>
<stop offset="1" stop-color="#332141"/>
</linearGradient>
<linearGradient id="paint2_linear_48414_672" x1="540.5" y1="0.0714264" x2="64.3839" y2="405.071" gradientUnits="userSpaceOnUse">
<stop offset="0.867188" stop-color="#332141" stop-opacity="0"/>
<stop offset="1" stop-color="#332141"/>
</linearGradient>
<linearGradient id="paint3_linear_48414_672" x1="1067.24" y1="212.214" x2="6.52672" y2="212.214" gradientUnits="userSpaceOnUse">
<stop stop-color="#5F5569"/>
<stop offset="0.0370475" stop-color="#5F5569" stop-opacity="0"/>
<stop offset="0.945984" stop-color="#332141" stop-opacity="0"/>
<stop offset="1" stop-color="#332141"/>
</linearGradient>
<radialGradient id="paint4_radial_48414_672" cx="0" cy="0" r="1" gradientUnits="userSpaceOnUse" gradientTransform="translate(237.955 250.786) rotate(-90) scale(482.143 482.143)">
<stop offset="0.195" stop-color="#28262E"/>
<stop offset="0.26" stop-color="#28262E" stop-opacity="0"/>
</radialGradient>
<radialGradient id="paint5_radial_48414_672" cx="0" cy="0" r="1" gradientUnits="userSpaceOnUse" gradientTransform="translate(855.098 231.5) rotate(-90) scale(443.571 443.571)">
<stop offset="0.263021" stop-color="#28262E"/>
<stop offset="0.315217" stop-color="#28262E" stop-opacity="0"/>
</radialGradient>
<radialGradient id="paint6_radial_48414_672" cx="0" cy="0" r="1" gradientUnits="userSpaceOnUse" gradientTransform="translate(546.527 250.786) rotate(-90) scale(424.286 424.286)">
<stop offset="0.213068" stop-color="#28262E"/>
<stop offset="0.284091" stop-color="#28262E" stop-opacity="0"/>
</radialGradient>
<linearGradient id="paint7_linear_48414_672" x1="964.786" y1="115.786" x2="818.239" y2="284.459" gradientUnits="userSpaceOnUse">
<stop stop-color="#E94489"/>
<stop offset="1" stop-color="#FA2F47"/>
</linearGradient>
<radialGradient id="paint8_radial_48414_672" cx="0" cy="0" r="1" gradientUnits="userSpaceOnUse" gradientTransform="translate(889.616 177.1) rotate(124.524) scale(184.366)">
<stop offset="0.776196" stop-color="#B50F2F" stop-opacity="0"/>
<stop offset="1" stop-color="#B50F2F"/>
</radialGradient>
<radialGradient id="paint9_radial_48414_672" cx="0" cy="0" r="1" gradientUnits="userSpaceOnUse" gradientTransform="translate(855.098 250.786) rotate(127.875) scale(439.782)">
<stop offset="0.188462" stop-color="#6A112D" stop-opacity="0"/>
<stop offset="0.298558" stop-color="#6A112D"/>
</radialGradient>
<linearGradient id="paint10_linear_48414_672" x1="656.214" y1="115.786" x2="509.667" y2="284.459" gradientUnits="userSpaceOnUse">
<stop stop-color="#FE9142"/>
<stop offset="1" stop-color="#FFE67B"/>
</linearGradient>
<radialGradient id="paint11_radial_48414_672" cx="0" cy="0" r="1" gradientUnits="userSpaceOnUse" gradientTransform="translate(581.044 177.1) rotate(124.524) scale(184.366)">
<stop offset="0.776196" stop-color="#C39A59" stop-opacity="0"/>
<stop offset="1" stop-color="#C39A59"/>
</radialGradient>
<radialGradient id="paint12_radial_48414_672" cx="0" cy="0" r="1" gradientUnits="userSpaceOnUse" gradientTransform="translate(546.527 250.786) rotate(127.875) scale(439.782)">
<stop offset="0.188462" stop-color="#8C541A" stop-opacity="0"/>
<stop offset="0.298558" stop-color="#8C541A"/>
</radialGradient>
<linearGradient id="paint13_linear_48414_672" x1="347.643" y1="115.786" x2="201.096" y2="284.459" gradientUnits="userSpaceOnUse">
<stop stop-color="#3F995F"/>
<stop offset="1" stop-color="#00D26A"/>
</linearGradient>
<radialGradient id="paint14_radial_48414_672" cx="0" cy="0" r="1" gradientUnits="userSpaceOnUse" gradientTransform="translate(272.473 177.1) rotate(124.524) scale(184.366)">
<stop offset="0.776196" stop-color="#1B9D5F" stop-opacity="0"/>
<stop offset="1" stop-color="#1B9D5F"/>
</radialGradient>
<radialGradient id="paint15_radial_48414_672" cx="0" cy="0" r="1" gradientUnits="userSpaceOnUse" gradientTransform="translate(237.955 250.786) rotate(127.875) scale(439.782)">
<stop offset="0.188462" stop-color="#106535" stop-opacity="0"/>
<stop offset="0.298558" stop-color="#106535"/>
</radialGradient>
<radialGradient id="paint16_radial_48414_672" cx="0" cy="0" r="1" gradientUnits="userSpaceOnUse" gradientTransform="translate(868.95 211.041) rotate(-50.371) scale(62.895 116.344)">
<stop stop-color="#F2F7F7"/>
<stop offset="1" stop-color="#F2F7F7" stop-opacity="0"/>
</radialGradient>
<radialGradient id="paint17_radial_48414_672" cx="0" cy="0" r="1" gradientUnits="userSpaceOnUse" gradientTransform="translate(560.379 211.041) rotate(-50.371) scale(62.895 116.344)">
<stop stop-color="#F2F7F7"/>
<stop offset="1" stop-color="#F2F7F7" stop-opacity="0"/>
</radialGradient>
<radialGradient id="paint18_radial_48414_672" cx="0" cy="0" r="1" gradientUnits="userSpaceOnUse" gradientTransform="translate(251.808 211.041) rotate(-50.371) scale(62.895 116.344)">
<stop stop-color="#F2F7F7"/>
<stop offset="1" stop-color="#F2F7F7" stop-opacity="0"/>
</radialGradient>
<linearGradient id="paint19_linear_48414_672" x1="100.547" y1="162.229" x2="362.712" y2="162.229" gradientUnits="userSpaceOnUse">
<stop stop-color="#291C32"/>
<stop offset="1" stop-color="#2A2630"/>
</linearGradient>
<radialGradient id="paint20_radial_48414_672" cx="0" cy="0" r="1" gradientUnits="userSpaceOnUse" gradientTransform="translate(237.958 231.5) rotate(-90) scale(154.286 154.286)">
<stop offset="0.698405" stop-color="#2A2631" stop-opacity="0.5"/>
<stop offset="0.769531" stop-color="#2A2631" stop-opacity="0"/>
<stop offset="0.873047" stop-color="#473F54" stop-opacity="0.9"/>
<stop offset="0.988281" stop-color="#2A2631" stop-opacity="0"/>
</radialGradient>
<linearGradient id="paint21_linear_48414_672" x1="409.118" y1="162.229" x2="671.283" y2="162.229" gradientUnits="userSpaceOnUse">
<stop stop-color="#291C32"/>
<stop offset="1" stop-color="#2A2630"/>
</linearGradient>
<radialGradient id="paint22_radial_48414_672" cx="0" cy="0" r="1" gradientUnits="userSpaceOnUse" gradientTransform="translate(546.529 231.5) rotate(-90) scale(154.286 154.286)">
<stop offset="0.698405" stop-color="#2A2631" stop-opacity="0.5"/>
<stop offset="0.769531" stop-color="#2A2631" stop-opacity="0"/>
<stop offset="0.873047" stop-color="#473F54" stop-opacity="0.9"/>
<stop offset="0.988281" stop-color="#2A2631" stop-opacity="0"/>
</radialGradient>
<linearGradient id="paint23_linear_48414_672" x1="717.69" y1="162.229" x2="979.855" y2="162.229" gradientUnits="userSpaceOnUse">
<stop stop-color="#291C32"/>
<stop offset="1" stop-color="#2A2630"/>
</linearGradient>
<radialGradient id="paint24_radial_48414_672" cx="0" cy="0" r="1" gradientUnits="userSpaceOnUse" gradientTransform="translate(855.1 231.5) rotate(-90) scale(154.286 154.286)">
<stop offset="0.698405" stop-color="#2A2631" stop-opacity="0.5"/>
<stop offset="0.769531" stop-color="#2A2631" stop-opacity="0"/>
<stop offset="0.873047" stop-color="#473F54" stop-opacity="0.9"/>
<stop offset="0.988281" stop-color="#2A2631" stop-opacity="0"/>
</radialGradient>
</defs>
</svg>
